<?xml version="1.0" encoding="UTF-8"?>
<svg id="svg2" xmlns="http://www.w3.org/2000/svg" version="1.1" xmlns:inkscape="http://www.inkscape.org/namespaces/inkscape" viewBox="0 0 1080.7 1080.7">
  <!-- Generator: Adobe Illustrator 29.1.0, SVG Export Plug-In . SVG Version: 2.1.0 Build 142)  -->
  <defs>
    <style>
      .st0 {
        fill: none;
        stroke: #000;
        stroke-linecap: round;
        stroke-linejoin: round;
        stroke-width: .7px;
      }
    </style>
  </defs>
  <path class="st0" d="M540.4.4C242.1.4.4,242.1.4,540.4s241.8,540,540,540,540-241.8,540-540S838.6.4,540.4.4"/>
  <g>
    <path class="st0" d="M568.5,564.1c-5.6-8.7-24.8-7.4-28.5,4.3-4-11.3-23.7-11.9-28.5-2.4-9,17.7,19.1,44.8,28.8,44.8s39.5-29,28.2-46.7h0"/>
    <path class="st0" d="M559.2,646.9l-11.3,8.3,4.5,13.6-12.2-9.6-11.4,10.6,4-15.1-11.1-8,14-2.1,4.9-13.3,5,13.4,13.6,2.1"/>
    <path class="st0" d="M642.1,535l-11.7,8.1,1.8,11.7-8.4-7-10.4,8,4.1-12.3-10.5-6.5,13-1,4.9-14,4.4,13.5,12.9-.6h0"/>
    <path class="st0" d="M461.1,535.9l-9.3,5.5,3.3,13.4-10.4-8.9-11.3,9.7,4.2-14.6-9.3-7.1,11.7-.2,4.2-13.7,4.4,14.1,12.5,1.8"/>
    <path class="st0" d="M437.1,300.9c-11.6,0-21.1,9.4-21.1,21.1s9.4,21.1,21.1,21.1,21.1-9.4,21.1-21.1-9.4-21.1-21.1-21.1"/>
    <path class="st0" d="M685.3,490.2c8.7,5.9,17.1,12.2,25.2,18.9,7.1,5.9,13.6,12.3,19.5,19.3,12.9,15.2,23,32.5,29.9,51.1,2.9,8,4.7,16.3,5.3,24.8,1.4,19.6-2,39.2-9.9,57.1-3.7,8.5-8.9,16.3-15.1,23.2-8.9,9.7-20,17.3-32.3,22-5.9,2.3-12.2,3.7-18.5,4.1-16.9,1.1-33.8-3.1-48.3-11.9-7.6-4.6-14.3-10.6-19.8-17.5-17.6-22.1-17.8-53.3-.5-75.6,17.3-22.3,47.7-29.8,73.4-18.1,4.5,2,8.7,4.6,12.6,7.6,2.2,1.7,5,2.3,7.8,1.7,3.2-.7,5.2-3.8,4.5-7-.1-.5-.3-1-.5-1.5-1.2-2.2-2.8-4.1-4.8-5.6-17.2-12.9-39.2-17.7-60.2-13.2-21.2,4.5-39.4,18-50,36.8-14.5,25.8-12.4,57.7,5.4,81.4,10,13.3,23.3,23.7,38.7,30,11.7,4.9,24.3,7.3,37,7.2,6.3,0,12.7-.9,18.8-2.4,28.4-7.3,51.9-27.1,63.9-53.8,7.2-15.9,11.3-33.1,12.2-50.5.8-16.5-2-33.1-8.2-48.4-3.9-9.7-8.7-19.1-14.2-28-10-16.3-22.5-30.8-37-43.2-7.3-6.2-14.9-12.1-22.8-17.6-12.2-8.5-24.2.6-11.9,9"/>
    <path class="st0" d="M643.7,300.9c11.6,0,21.1,9.4,21.1,21.1s-9.4,21.1-21.1,21.1-21.1-9.4-21.1-21.1,9.4-21.1,21.1-21.1"/>
    <path class="st0" d="M540.4,407.7c-10.6,11.8-29.3,19.1-44.6,12.1-4-1.9-13.1-5.5-8.4-12.3,3.9-5.5,11.4,1.8,19.7,1.8s19.6-4.3,22.7-10.6c1.5-3.1-2.6-4.4-5.9-6.9-19.5-14.9-14.7-37.2,16.6-37.1,31.3,0,36,22.2,16.6,37.1-3.4,2.6-7.5,3.8-5.9,6.9,3.1,6.3,13,10.6,22.7,10.6s15.8-7.3,19.7-1.8c4.7,6.8-4.4,10.4-8.4,12.3-15.3,7-34-.3-44.6-12.1"/>
    <path class="st0" d="M395.5,490.2c-8.7,5.9-17.1,12.2-25.2,18.9-7.1,5.9-13.6,12.3-19.5,19.3-12.9,15.2-23,32.5-29.9,51.1-2.9,8-4.7,16.3-5.3,24.8-1.4,19.6,2,39.2,9.9,57.1,3.7,8.5,8.9,16.3,15.1,23.2,8.9,9.7,20,17.3,32.3,22,5.9,2.3,12.2,3.7,18.5,4.1,16.9,1.1,33.8-3.1,48.3-11.9,7.6-4.6,14.3-10.6,19.8-17.5,17.6-22.1,17.8-53.3.5-75.6-17.3-22.3-47.7-29.8-73.4-18.1-4.5,2-8.7,4.6-12.6,7.6-2.2,1.7-5,2.3-7.8,1.7-3.2-.7-5.2-3.8-4.5-7,.1-.5.3-1,.5-1.5,1.2-2.2,2.8-4.1,4.8-5.6,17.2-12.9,39.2-17.7,60.2-13.2,21.2,4.5,39.4,18,50,36.8,14.5,25.8,12.4,57.7-5.4,81.4-10,13.3-23.3,23.7-38.7,30-11.7,4.9-24.3,7.3-37,7.2-6.3,0-12.7-.9-18.8-2.4-28.4-7.3-51.9-27.1-63.9-53.8-7.2-15.9-11.3-33.1-12.2-50.5-.8-16.5,2-33.1,8.2-48.4,3.9-9.7,8.7-19.1,14.2-28,10-16.3,22.5-30.8,37-43.2,7.3-6.2,14.9-12.1,22.8-17.6,12.2-8.5,24.2.6,11.9,9"/>
    <path class="st0" d="M660.7,885.7c-79.4,15.1-161.1,15.1-240.6,0-15.1-2.9-24,9.6-8.9,12.6,85.3,17.1,173.1,17.1,258.4,0,15.1-3,6.3-15.5-8.9-12.6"/>
    <path class="st0" d="M540.4,158.4c14.2,0,28.4,1,42.5,3,10.5,1.5,20.9,3.7,31,6.6,7.2,2.1,14.3,4.3,21.3,6.7,1-1.7,2-3.4,3.1-5.1,1-1.7,2-3.4,3.1-5.1,17.4-28.9,54.9-38.2,83.8-20.8.4.2.8.5,1.1.7,28.5,18,37,55.7,19,84.2-.2.4-.5.7-.7,1.1-3.3,4.9-7.3,9.3-11.9,13-4.1,3.2-8.2,6.4-12.4,9.4.7,1.8,1.5,3.7,2.2,5.5.7,1.8,1.5,3.7,2.2,5.5,7,17.3,11.3,35.6,12.6,54.2,1.2,17.2-.4,34.5-5,51.1-7.6,27.8-22.6,53-43.4,73-23.4,22.5-51.8,39-82.9,48.3-31.6,9.4-64.8,12-97.4,7.5-17.3-2.4-34.3-6.8-50.6-13.2-26.2-10.2-49.9-25.8-69.6-45.8-34.5-35-50.7-84-43.9-132.6,1.5-10.5,4-20.9,7.5-31,2.6-7.6,5.5-15.1,8.5-22.5-1.6-1.1-3.1-2.3-4.7-3.4-1.6-1.1-3.1-2.3-4.7-3.4-27.2-19.8-33.2-58-13.4-85.3.3-.4.5-.7.8-1.1,20.4-26.8,58.7-32,85.6-11.6.3.3.7.5,1,.8,4.7,3.7,8.7,8.1,12,13.1,2.9,4.4,5.7,8.9,8.4,13.4,2-.7,4-1.4,6-2,2-.7,4-1.4,6-2,12.9-4.3,26.2-7.4,39.6-9.3,14.4-2,28.8-3,43.3-2.9v-13.9c-10.8,0-21.6.5-32.4,1.4-15.7,1.4-31.3,4.3-46.4,8.7-1.6.5-3.3,1-4.9,1.5-1.6.5-3.3,1.1-4.9,1.6-3.2-5-6.9-9.7-11-14-7-7.4-15.6-13.3-25-17.2-34.5-14.2-74.2-1-93.2,31-19.1,32.1-11.7,73.2,17.2,96.7.6.5,1.2.9,1.8,1.4.6.4,1.2.9,1.8,1.4-4.4,11.3-8,23-10.6,34.9-4.3,19.9-5,40.5-2,60.7,4.1,27.3,14.8,53.1,31.1,75.3,17.9,24.2,40.9,44.2,67.5,58.4,18.3,9.8,37.9,17,58.3,21.5,39,8.5,79.4,7.4,117.9-3.2,29.9-8.3,57.8-22.7,81.7-42.4,21.7-17.8,38.8-40.5,50.2-66.1,10.4-23.5,15.2-49,14.2-74.7-.8-19.9-4.8-39.5-11.7-58.1-.4-1-.8-2.1-1.2-3.1-.4-1-.8-2.1-1.2-3.1,5.6-4.2,10.6-9.1,15-14.6,7.7-9.6,12.9-20.9,15.1-33,6.3-34.9-12.6-69.5-45.4-83-32.8-13.5-70.6-2.2-90.6,27.1-.5.7-.9,1.4-1.3,2.1-.4.7-.9,1.4-1.3,2.1-7.5-2.3-15-4.4-22.6-6.1-13.7-3.1-27.6-5.2-41.7-6.2-8.1-.6-16.2-.9-24.3-.9v13.9"/>
    <path class="st0" d="M316.9,736.1c47.7,0,86.5,38.7,86.5,86.5s-38.7,86.5-86.5,86.5-86.5-38.7-86.5-86.5,38.7-86.5,86.5-86.5v-13.4c-55.1,0-99.8,44.7-99.8,99.8,0,55.1,44.7,99.8,99.8,99.8s99.8-44.7,99.8-99.8c0-55.1-44.7-99.8-99.8-99.8v13.4"/>
    <path class="st0" d="M763.8,736.1c-47.7,0-86.5,38.7-86.5,86.5s38.7,86.5,86.5,86.5,86.5-38.7,86.5-86.5-38.7-86.5-86.5-86.5v-13.4c55.1,0,99.9,44.7,99.9,99.8h0c0,55.1-44.7,99.8-99.9,99.8h0c-55.1,0-99.8-44.7-99.8-99.8s44.7-99.8,99.8-99.8v13.4"/>
    <path class="st0" d="M540.4,756.4c-15.6,0-28.2,12.6-28.2,28.2h0c0,15.6,12.6,28.2,28.2,28.2h0c15.6,0,28.2-12.6,28.2-28.2h0c0-15.6-12.6-28.2-28.2-28.2h0"/>
    <path class="st0" d="M507.5,786h-.3c0,0-.8-.2-.8-.2l-1.5-.3-1.4-.3h-.7c0-.1-.7-.2-.7-.2h-.6c0-.1-.6-.2-.6-.2h-.6c0,0-.3-.1-.3-.1h-.3s-.3,0-.3,0h-.3s-.3,0-.3,0h-.3s-.3,0-.3,0h-.3s-.3,0-.3,0h-.3s-.3,0-.3,0h-.3s-.3,0-.3,0h-.3s-.3,0-.3,0h-.3s-.3,0-.3,0h-.3s-.3,0-.3,0h-.3s-.3,0-.3,0h-.3s-.3.1-.3.1h-.3c0,0-.3.1-.3.1h-.3c0,0-.3.1-.3.1h-.4c0,0-.4.2-.4.2h-.4c0,0-.4.2-.4.2h-.4c0,.1-.4.2-.4.2h-.4c0,.1-.4.3-.4.3h-.4c0,.1-.4.3-.4.3l-.4.2c-2.6,1-3.6-1.6-1-2.6l.4-.2.4-.2.4-.2h.4c0-.1.4-.3.4-.3h.4c0-.1.4-.3.4-.3h.4c0-.1.4-.2.4-.2h.4c0-.1.4-.2.4-.2h.4c0,0,.4-.2.4-.2h.4c0,0,.4-.1.4-.1h.4c0,0,.4-.1.4-.1h.4s.4,0,.4,0h.4s.4,0,.4,0h.4s.4,0,.4,0h.3s.3,0,.3,0h.3s.3,0,.3,0h.3s.3,0,.3,0h.3s.3,0,.3,0h.3s.3,0,.3,0h.3s.3,0,.3,0h.3s.3,0,.3,0h.3s.7.1.7.1h.7c0,.1.7.2.7.2h.7c0,.1.7.3.7.3l1.4.3,1.5.3h.5c0,0,0,0,0,0v-.4s0-.4,0-.4v-.4s0-.4,0-.4v-.4s0-.4,0-.4v-.4s0-.4,0-.4v-.4c0,0,.1-.4.1-.4v-.4c0,0,.1-.4.1-.4v-.4c0,0,.1-.4.1-.4v-.4c0,0,.2-.4.2-.4v-.4c0,0,.2-.4.2-.4l-8.6-3.6-.4-.2-.4-.2h-.4c0-.1-.4-.3-.4-.3h-.4c0-.1-.4-.3-.4-.3h-.4c0-.1-.4-.2-.4-.2h-.4c0-.1-.4-.2-.4-.2h-.4c0-.1-.4-.2-.4-.2h-.4c0,0-.4-.2-.4-.2h-.4c0,0-.4-.2-.4-.2h-.4c0,0-.4-.1-.4-.1h-.5c0,0-.5-.1-.5-.1h-.5c0,0-.5-.1-.5-.1h-.5s-.5,0-.5,0h-.5s-.6,0-.6,0h-.6s-.6,0-.6,0h-.6s-.6,0-.6,0h-.7s-.7,0-.7,0h-.4s-.4,0-.4,0h-.4s-.4,0-.4,0h-.4s-.4,0-.4,0h-.4s-.4,0-.4,0h-.4s-.4,0-.4,0h-.4s-.4,0-.4,0h-.4s-.4,0-.4,0h-.4s-.4,0-.4,0h-.3s-.3,0-.3,0h-.3s-.3.1-.3.1h-.3c0,0-.3.1-.3.1h-.3c0,0-.3.1-.3.1h-.3c0,0-.3.1-.3.1h-.3c0,0-.3.1-.3.1h-.3c0,0-.3.1-.3.1h-.3c0,0-.3.2-.3.2h-.3c0,0-.3.2-.3.2h-.3c0,0-.3.2-.3.2h-.3c0,0-.3.2-.3.2h-.3c0,0-.3.2-.3.2h-.3c0,0-.3.2-.3.2h-.3c0,0-.3.2-.3.2h-.3c0,.1-.3.2-.3.2h-.3c0,.1-.3.2-.3.2h-.3c0,.1-.3.2-.3.2h-.3c0,.1-.2.2-.2.2h-.2c0,.1-.2.2-.2.2h-.2c0,.1-.2.2-.2.2h-.2c0,.1-.2.2-.2.2h-.2c0,.1-.2.3-.2.3h-.2c0,.1-.2.3-.2.3h-.2c0,.1-.2.3-.2.3h-.2c0,.1-.2.3-.2.3h-.2c0,.1-.2.3-.2.3h-.2c0,.1-.2.3-.2.3h-.2c0,.1-.2.3-.2.3h-.2c0,.1-.2.3-.2.3h-.2c0,.1-.2.3-.2.3h-.2c0,.1-.2.3-.2.3h-.2c0,.1-.2.3-.2.3h-.1c0,.1-.1.3-.1.3h-.1c0,.1-.1.3-.1.3h-.1c0,.1-.1.3-.1.3h-.1c0,.1-.1.3-.1.3h-.1c0,.1-.1.3-.1.3h-.1c0,.1-.1.3-.1.3h-.1c0,.1-.1.3-.1.3h0c0,.1,0,.3,0,.3h0c0,.1,0,.3,0,.3h0c0,.1,0,.3,0,.3h0c0,.1,0,.3,0,.3h0c0,.1,0,.3,0,.3h0c0,.1,0,.3,0,.3h0c0,.1,0,.3,0,.3h0c0,.1,0,.3,0,.3h0c0,.1,0,.3,0,.3h0c0,.1,0,.3,0,.3v.2s0,.2,0,.2v.2s0,.2,0,.2v.2s0,.2,0,.2v.2s0,.2,0,.2v.2s0,.2,0,.2v.2s0,.2,0,.2v.2s0,.2,0,.2v.2s0,.2,0,.2v.2s0,.2,0,.2v.2s0,.2,0,.2v.2s0,.2,0,.2v.2s0,.2,0,.2v.2s0,.2,0,.2v.2s0,.2,0,.2h0c0,.1,0,.3,0,.3h0c0,.1,0,.3,0,.3h0c0,.1,0,.3,0,.3h0c0,.1,0,.3,0,.3h0c0,.1,0,.3,0,.3h0c0,.1,0,.3,0,.3h0c0,.1,0,.3,0,.3h0c0,.1,0,.3,0,.3h0c0,.1,0,.3,0,.3h0c0,.1,0,.3,0,.3h.1c0,.1.1.3.1.3h.1c0,.1.1.3.1.3h.1c0,.1.1.3.1.3h.1c0,.1.1.3.1.3h.1c0,.1.1.3.1.3h.1c0,.1.1.3.1.3h.1c0,.1.1.3.1.3h.2c0,.1.2.3.2.3h.2c0,.1.2.3.2.3h.2c0,.1.2.3.2.3h.2c0,.1.2.3.2.3h.2c0,.1.2.3.2.3h.2c0,.1.2.3.2.3h.2c0,.1.2.3.2.3h.2c0,.1.2.3.2.3h.2c0,.1.2.3.2.3h.2c0,.1.2.3.2.3h.2c0,.1.2.3.2.3h.2c0,.1.2.2.2.2h.2c0,.1.2.2.2.2h.2c0,.1.2.2.2.2h.2c0,.1.3.2.3.2h.3c0,.1.3.2.3.2h.3c0,.1.3.2.3.2h.3c0,.1.3.2.3.2h.3c0,.1.3.2.3.2h.3c0,0,.3.2.3.2h.3c0,0,.3.2.3.2h.3c0,0,.3.2.3.2h.3c0,0,.3.2.3.2h.3c0,0,.3.2.3.2h.3c0,0,.3.2.3.2h.3c0,0,.3.1.3.1h.3c0,0,.3.1.3.1h.3c0,0,.3.1.3.1h.3c0,0,.3.1.3.1h.3c0,0,.3.1.3.1h.3c0,0,.3.1.3.1h.3s.3,0,.3,0h.4s.4,0,.4,0h.4s.4,0,.4,0h.4s.4,0,.4,0h.4s.4,0,.4,0h.4s.4,0,.4,0h.4s.4,0,.4,0h.4s.4,0,.4,0h.4s.4,0,.4,0h.7s.7,0,.7,0h.6s.6,0,.6,0h.6s.6,0,.6,0h.6s.5,0,.5,0h.5s.5,0,.5,0h.5c0,0,.5-.1.5-.1h.5c0,0,.5-.1.5-.1h.4c0,0,.4-.1.4-.1h.4c0,0,.4-.2.4-.2h.4c0,0,.4-.2.4-.2h.4c0,0,.4-.2.4-.2h.4c0-.1.4-.2.4-.2h.4c0-.1.4-.2.4-.2h.4c0-.1.4-.3.4-.3h.4c0-.1.4-.3.4-.3l.4-.2.4-.2,8.6-3.6v-.4c0,0-.2-.4-.2-.4v-.4c0,0-.2-.4-.2-.4v-.4c0,0-.1-.4-.1-.4v-.4c0,0-.1-.4-.1-.4v-.4c0,0-.1-.4-.1-.4v-.4s0-.4,0-.4v-.4s0-.4,0-.4v-.4s0-.4,0-.4v-.4s0-.4,0-.4h0"/>
    <path class="st0" d="M516.1,762.3l-.2-.2-.4-.6-.8-1.2-.8-1.2-.4-.6-.4-.5-.4-.5-.4-.5-.4-.5-.2-.2-.2-.2-.2-.2-.2-.2-.2-.2-.2-.2-.2-.2-.2-.2-.2-.2-.2-.2-.2-.2-.2-.2-.2-.2-.2-.2-.2-.2-.2-.2-.2-.2-.2-.2-.2-.2-.3-.2-.3-.2-.3-.2-.3-.2-.3-.2-.3-.2-.3-.2-.3-.2-.3-.2-.3-.2-.3-.2-.3-.2-.3-.2-.4-.2-.4-.2-.4-.2-.4-.2-.4-.2-.4-.2c-2.6-1.2-1.4-3.7,1.2-2.6l.4.2.4.2.4.2.4.2.4.2.4.2.4.2.4.2.4.2.4.2.3.2.3.2.3.2.3.2.3.2.3.2.3.2.3.2.3.2.3.2.3.2.3.2.3.2.3.2.3.2.2.2.2.2.2.2.2.2.2.2.2.3.2.3.2.3.2.3.2.3.2.3.2.3.2.3.4.5.4.5.4.6.4.6.4.6.8,1.2.8,1.2.3.4h0s.3-.3.3-.3l.3-.2.3-.2.3-.2.3-.2.3-.2.3-.2.3-.2.3-.2.3-.2.3-.2.3-.2.3-.2.3-.2.3-.2.3-.2.3-.2.3-.2-3.6-8.6-.2-.4-.2-.4-.2-.4-.2-.4-.2-.4-.2-.4-.2-.4-.2-.4-.2-.3-.2-.3-.2-.3-.2-.3-.2-.3-.2-.4-.2-.4-.2-.4-.3-.4-.3-.4-.3-.4-.3-.4-.3-.4-.3-.4-.3-.4-.3-.4-.4-.4-.4-.4-.4-.4-.4-.4-.4-.4-.4-.5-.5-.5-.5-.5-.3-.3-.3-.3-.3-.3-.3-.3-.3-.3-.3-.3-.3-.3-.3-.2-.3-.2-.3-.2-.3-.2-.3-.2-.3-.2-.3-.2-.3-.2-.3-.2-.3-.2-.3-.2-.3-.2-.3-.2-.3-.2-.3-.2-.3-.2-.3-.2-.3-.2-.3-.2-.3-.2-.3-.2-.3-.2-.3-.2-.3-.2-.3-.2-.3-.2-.3-.2-.3-.2h-.3c0-.1-.3-.3-.3-.3h-.3c0-.1-.3-.3-.3-.3h-.3c0-.1-.3-.3-.3-.3h-.3c0-.1-.3-.3-.3-.3h-.3c0-.1-.3-.2-.3-.2h-.3c0-.1-.3-.2-.3-.2h-.3c0-.1-.3-.2-.3-.2h-.3c0-.1-.3-.2-.3-.2h-.3c0,0-.3-.2-.3-.2h-.3c0,0-.3-.2-.3-.2h-.3c0,0-.2-.2-.2-.2h-.2c0,0-.2-.1-.2-.1h-.2c0,0-.2-.1-.2-.1h-.2c0,0-.2-.1-.2-.1h-.2c0,0-.2-.1-.2-.1h-.2s-.2,0-.2,0h-.2s-.2,0-.2,0h-.2s-.2,0-.2,0h-.2s-.2,0-.2,0h-.2s-.2,0-.2,0h-.2s-.2,0-.2,0h-.2s-.2,0-.2,0h-.2s-.2,0-.2,0h-.2s-.2,0-.2,0h-.2s-.2,0-.2,0h-.2s-.2,0-.2,0h-.2s-.2,0-.2,0h-.2s-.2,0-.2,0h-.2s-.2,0-.2,0h-.2s-.2,0-.2,0h-.2s-.2,0-.2,0h-.2s-.2,0-.2,0h-.2s-.2,0-.2,0h-.2c0,0-.2.1-.2.1h-.2c0,0-.2.1-.2.1h-.2c0,0-.1.1-.1.1h-.1c0,0-.1.1-.1.1h-.1c0,0-.1.1-.1.1h-.1c0,0-.1.1-.1.1h-.1c0,0-.1.2-.1.2h-.1c0,0-.1.2-.1.2h-.1c0,0-.1.2-.1.2h-.1c0,0-.1.2-.1.2h-.1c0,0-.1.2-.1.2h-.1c0,0-.1.2-.1.2h-.1c0,.1-.1.2-.1.2h-.1c0,.1-.1.2-.1.2h-.1c0,.1-.1.2-.1.2h-.1c0,.1,0,.2,0,.2h0c0,.1,0,.2,0,.2h0c0,.1,0,.2,0,.2h0c0,.1,0,.3,0,.3h0c0,.1,0,.3,0,.3h0c0,.1,0,.3,0,.3h0c0,.1,0,.3,0,.3h0c0,.1,0,.3,0,.3h0c0,.1,0,.3,0,.3h0c0,.1,0,.3,0,.3v.2c0,0-.1.2-.1.2v.2c0,0-.1.2-.1.2v.2s0,.2,0,.2v.2s0,.2,0,.2v.2s0,.2,0,.2v.2s0,.2,0,.2v.2s0,.2,0,.2v.2s0,.2,0,.2v.2s0,.2,0,.2v.2s0,.2,0,.2v.2s0,.2,0,.2v.2s0,.2,0,.2v.2s0,.2,0,.2v.2s0,.2,0,.2v.2s0,.2,0,.2v.2s0,.2,0,.2v.2s0,.2,0,.2v.2s0,.2,0,.2v.2s0,.2,0,.2v.2s0,.2,0,.2v.2c0,0,.1.2.1.2v.2c0,0,.1.2.1.2v.2c0,0,.1.2.1.2v.2c0,0,.1.2.1.2v.2c0,0,.2.3.2.3v.3c0,0,.2.3.2.3v.3c0,0,.2.3.2.3v.3c0,0,.2.3.2.3v.3c.1,0,.2.3.2.3v.3c.1,0,.2.3.2.3v.3c.1,0,.2.3.2.3v.3c.1,0,.3.3.3.3v.3c.1,0,.3.3.3.3v.3c.1,0,.3.3.3.3v.3c.1,0,.3.3.3.3l.2.3.2.3.2.3.2.3.2.3.2.3.2.3.2.3.2.3.2.3.2.3.2.3.2.3.2.3.2.3.2.3.2.3.2.3.2.3.2.3.2.3.2.3.2.3.2.3.2.3.2.3.2.3.2.3.3.3.3.3.3.3.3.3.3.3.3.3.3.3.5.5.5.5.5.4.4.4.4.4.4.4.4.4.4.4.4.3.4.3.4.3.4.3.4.3.4.3.4.3.4.3.4.2.4.2.4.2.3.2.3.2.3.2.3.2.3.2.4.2.4.2.4.2.4.2.4.2.4.2.4.2.4.2,8.6,3.6.2-.3.2-.3.2-.3.2-.3.2-.3.2-.3.2-.3.2-.3.2-.3.2-.3.2-.3.2-.3.2-.3.2-.3.2-.3.2-.3.2-.3.2-.3h0"/>
    <path class="st0" d="M538.9,751.7v-.3c0,0,.2-.8.2-.8l.3-1.5.3-1.4v-.7c.1,0,.2-.7.2-.7v-.6c.1,0,.2-.6.2-.6v-.6c0,0,.1-.3.1-.3v-.3s0-.3,0-.3v-.3s0-.3,0-.3v-.3s0-.3,0-.3v-.3s0-.3,0-.3v-.3s0-.3,0-.3v-.3s0-.3,0-.3v-.3s0-.3,0-.3v-.3s0-.3,0-.3v-.3s0-.3,0-.3v-.3s0-.3,0-.3v-.3s-.1-.3-.1-.3v-.3c0,0-.1-.3-.1-.3v-.3c0,0-.1-.3-.1-.3v-.4c0,0-.2-.4-.2-.4v-.4c0,0-.2-.4-.2-.4v-.4c-.1,0-.2-.4-.2-.4v-.4c-.1,0-.3-.4-.3-.4v-.4c-.1,0-.3-.4-.3-.4l-.2-.4c-1-2.6,1.6-3.6,2.6-1l.2.4.2.4.2.4v.4c.1,0,.3.4.3.4v.4c.1,0,.3.4.3.4v.4c.1,0,.2.4.2.4v.4c.1,0,.2.4.2.4v.4c0,0,.2.4.2.4v.4c0,0,.1.4.1.4v.4c0,0,.1.4.1.4v.4s0,.4,0,.4v.4s0,.4,0,.4v.4s0,.4,0,.4v.3s0,.3,0,.3v.3s0,.3,0,.3v.3s0,.3,0,.3v.3s0,.3,0,.3v.3s0,.3,0,.3v.3s0,.3,0,.3v.3s0,.3,0,.3v.3s-.1.7-.1.7v.7c-.1,0-.2.7-.2.7v.7c-.1,0-.3.7-.3.7l-.3,1.4-.3,1.5v.5c0,0,0,0,0,0h.4s.4,0,.4,0h.4s.4,0,.4,0h.4s.4,0,.4,0h.4s.4,0,.4,0h.4c0,0,.4.1.4.1h.4c0,0,.4.1.4.1h.4c0,0,.4.1.4.1h.4c0,0,.4.2.4.2h.4c0,0,.4.2.4.2l3.6-8.6.2-.4.2-.4v-.4c.1,0,.3-.4.3-.4v-.4c.1,0,.3-.4.3-.4v-.4c.1,0,.2-.4.2-.4v-.4c.1,0,.2-.4.2-.4v-.4c.1,0,.2-.4.2-.4v-.4c0,0,.2-.4.2-.4v-.4c0,0,.2-.4.2-.4v-.4c0,0,.1-.4.1-.4v-.5c0,0,.1-.5.1-.5v-.5c0,0,.1-.5.1-.5v-.5s0-.5,0-.5v-.5s0-.6,0-.6v-.6s0-.6,0-.6v-.6s0-.6,0-.6v-.7s0-.7,0-.7v-.4s0-.4,0-.4v-.4s0-.4,0-.4v-.4s0-.4,0-.4v-.4s0-.4,0-.4v-.4s0-.4,0-.4v-.4s0-.4,0-.4v-.4s0-.4,0-.4v-.4s0-.4,0-.4v-.3s0-.3,0-.3v-.3s-.1-.3-.1-.3v-.3c0,0-.1-.3-.1-.3v-.3c0,0-.1-.3-.1-.3v-.3c0,0-.1-.3-.1-.3v-.3c0,0-.1-.3-.1-.3v-.3c0,0-.1-.3-.1-.3v-.3c0,0-.2-.3-.2-.3v-.3c0,0-.2-.3-.2-.3v-.3c0,0-.2-.3-.2-.3v-.3c0,0-.2-.3-.2-.3v-.3c0,0-.2-.3-.2-.3v-.3c0,0-.2-.3-.2-.3v-.3c0,0-.2-.3-.2-.3v-.3c-.1,0-.2-.3-.2-.3v-.3c-.1,0-.2-.3-.2-.3v-.3c-.1,0-.2-.3-.2-.3v-.3c-.1,0-.2-.2-.2-.2v-.2c-.1,0-.2-.2-.2-.2v-.2c-.1,0-.2-.2-.2-.2v-.2c-.1,0-.2-.2-.2-.2v-.2c-.1,0-.3-.2-.3-.2v-.2c-.1,0-.3-.2-.3-.2v-.2c-.1,0-.3-.2-.3-.2v-.2c-.1,0-.3-.2-.3-.2v-.2c-.1,0-.3-.2-.3-.2v-.2c-.1,0-.3-.2-.3-.2v-.2c-.1,0-.3-.2-.3-.2v-.2c-.1,0-.3-.2-.3-.2v-.2c-.1,0-.3-.2-.3-.2v-.2c-.1,0-.3-.2-.3-.2v-.2c-.1,0-.3-.2-.3-.2h-.1c0-.1-.1-.3-.1-.3h-.1c0-.1-.1-.3-.1-.3h-.1c0-.1-.1-.3-.1-.3h-.1c0-.1-.1-.3-.1-.3h-.1c0-.1-.1-.2-.1-.2h-.1c0-.1-.1-.2-.1-.2h-.1c0-.1-.1-.2-.1-.2h-.1c0,0-.1-.2-.1-.2h-.1c0,0-.1-.2-.1-.2h-.1c0,0-.1-.2-.1-.2h-.1c0,0-.1-.2-.1-.2h-.1c0,0-.1-.1-.1-.1h-.1c0,0-.1-.1-.1-.1h-.1c0,0-.1-.1-.1-.1h-.1c0,0-.1-.1-.1-.1h-.1s-.1,0-.1,0h-.1s-.1,0-.1,0h-.2s-.2,0-.2,0h-.2s-.2,0-.2,0h-.2s-.2,0-.2,0h-.2s-.2,0-.2,0h-.2s-.2,0-.2,0h-.2s-.2,0-.2,0h-.2s-.2,0-.2,0h-.2s-.2,0-.2,0h-.2s-.2,0-.2,0h-.2s-.2,0-.2,0h-.2s-.2,0-.2,0h-.2s-.2,0-.2,0h-.2s-.2,0-.2,0h-.2s-.2,0-.2,0h-.1s-.1,0-.1,0h-.1s-.1,0-.1,0h-.1c0,0-.1.1-.1.1h-.1c0,0-.1.1-.1.1h-.1c0,0-.1.1-.1.1h-.1c0,0-.1.1-.1.1h-.1c0,0-.1.2-.1.2h-.1c0,0-.1.2-.1.2h-.1c0,0-.1.2-.1.2h-.1c0,0-.1.2-.1.2h-.1c0,.1-.1.2-.1.2h-.1c0,.1-.1.2-.1.2h-.1c0,.1-.1.2-.1.2h-.1c0,.1-.1.3-.1.3h-.1c0,.1-.1.3-.1.3h-.1c0,.1-.1.3-.1.3h-.1c0,.1-.1.3-.1.3v.2c-.1,0-.3.2-.3.2v.2c-.1,0-.3.2-.3.2v.2c-.1,0-.3.2-.3.2v.2c-.1,0-.3.2-.3.2v.2c-.1,0-.3.2-.3.2v.2c-.1,0-.3.2-.3.2v.2c-.1,0-.3.2-.3.2v.2c-.1,0-.3.2-.3.2v.2c-.1,0-.3.2-.3.2v.2c-.1,0-.3.2-.3.2v.2c-.1,0-.3.2-.3.2v.2c-.1,0-.2.2-.2.2v.2c-.1,0-.2.2-.2.2v.2c-.1,0-.2.2-.2.2v.2c-.1,0-.2.3-.2.3v.3c-.1,0-.2.3-.2.3v.3c-.1,0-.2.3-.2.3v.3c-.1,0-.2.3-.2.3v.3c-.1,0-.2.3-.2.3v.3c0,0-.2.3-.2.3v.3c0,0-.2.3-.2.3v.3c0,0-.2.3-.2.3v.3c0,0-.2.3-.2.3v.3c0,0-.2.3-.2.3v.3c0,0-.2.3-.2.3v.3c0,0-.1.3-.1.3v.3c0,0-.1.3-.1.3v.3c0,0-.1.3-.1.3v.3c0,0-.1.3-.1.3v.3c0,0-.1.3-.1.3v.3c0,0-.1.3-.1.3v.3s0,.3,0,.3v.4s0,.4,0,.4v.4s0,.4,0,.4v.4s0,.4,0,.4v.4s0,.4,0,.4v.4s0,.4,0,.4v.4s0,.4,0,.4v.4s0,.4,0,.4v.4s0,.4,0,.4v.7s0,.7,0,.7v.6s0,.6,0,.6v.6s0,.6,0,.6v.6s0,.5,0,.5v.5s0,.5,0,.5v.5c0,0,.1.5.1.5v.5c0,0,.1.5.1.5v.4c0,0,.1.4.1.4v.4c0,0,.2.4.2.4v.4c0,0,.2.4.2.4v.4c0,0,.2.4.2.4v.4c.1,0,.2.4.2.4v.4c.1,0,.2.4.2.4v.4c.1,0,.3.4.3.4v.4c.1,0,.3.4.3.4l.2.4.2.4,3.6,8.6h.4c0,0,.4-.2.4-.2h.4c0,0,.4-.2.4-.2h.4c0,0,.4-.1.4-.1h.4c0,0,.4-.1.4-.1h.4c0,0,.4-.1.4-.1h.4s.4,0,.4,0h.4s.4,0,.4,0h.4s.4,0,.4,0h.4s.4,0,.4,0h0"/>
    <path class="st0" d="M562.6,760.3l.2-.2.6-.4,1.2-.8,1.2-.8.6-.4.5-.4.5-.4.5-.4.5-.4.2-.2.2-.2.2-.2.2-.2.2-.2.2-.2.2-.2.2-.2.2-.2.2-.2.2-.2.2-.2.2-.2.2-.2.2-.2.2-.2.2-.2.2-.2.2-.2.2-.3.2-.3.2-.3.2-.3.2-.3.2-.3.2-.3.2-.3.2-.3.2-.3.2-.3.2-.3.2-.3.2-.4.2-.4.2-.4.2-.4.2-.4.2-.4c1.2-2.6,3.7-1.4,2.6,1.2l-.2.4-.2.4-.2.4-.2.4-.2.4-.2.4-.2.4-.2.4-.2.4-.2.4-.2.3-.2.3-.2.3-.2.3-.2.3-.2.3-.2.3-.2.3-.2.3-.2.3-.2.3-.2.3-.2.3-.2.3-.2.3-.2.2-.2.2-.2.2-.2.2-.2.2-.3.2-.3.2-.3.2-.3.2-.3.2-.3.2-.3.2-.3.2-.5.4-.5.4-.6.4-.6.4-.6.4-1.2.8-1.2.8-.4.3h0s.2.3.2.3l.2.3.2.3.2.3.2.3.2.3.2.3.2.3.2.3.2.3.2.3.2.3.2.3.2.3.2.3.2.3.2.3.2.3,8.6-3.6.4-.2.4-.2.4-.2.4-.2.4-.2.4-.2.4-.2.4-.2.3-.2.3-.2.3-.2.3-.2.3-.2.4-.2.4-.2.4-.2.4-.3.4-.3.4-.3.4-.3.4-.3.4-.3.4-.3.4-.3.4-.4.4-.4.4-.4.4-.4.4-.4.5-.4.5-.5.5-.5.3-.3.3-.3.3-.3.3-.3.3-.3.3-.3.3-.3.2-.3.2-.3.2-.3.2-.3.2-.3.2-.3.2-.3.2-.3.2-.3.2-.3.2-.3.2-.3.2-.3.2-.3.2-.3.2-.3.2-.3.2-.3.2-.3.2-.3.2-.3.2-.3.2-.3.2-.3.2-.3.2-.3.2-.3.2-.3v-.3c.1,0,.3-.3.3-.3v-.3c.1,0,.3-.3.3-.3v-.3c.1,0,.3-.3.3-.3v-.3c.1,0,.3-.3.3-.3v-.3c.1,0,.2-.3.2-.3v-.3c.1,0,.2-.3.2-.3v-.3c.1,0,.2-.3.2-.3v-.3c.1,0,.2-.3.2-.3v-.3c0,0,.2-.3.2-.3v-.3c0,0,.2-.3.2-.3v-.3c0,0,.2-.2.2-.2v-.2c0,0,.1-.2.1-.2v-.2c0,0,.1-.2.1-.2v-.2c0,0,.1-.2.1-.2v-.2c0,0,.1-.2.1-.2v-.2s0-.2,0-.2v-.2s0-.2,0-.2v-.2s0-.2,0-.2v-.2s0-.2,0-.2v-.2s0-.2,0-.2v-.2s0-.2,0-.2v-.2s0-.2,0-.2v-.2s0-.2,0-.2v-.2s0-.2,0-.2v-.2s0-.2,0-.2v-.2s0-.2,0-.2v-.2s0-.2,0-.2v-.2s0-.2,0-.2v-.2s0-.2,0-.2v-.2s0-.2,0-.2v-.2s0-.2,0-.2v-.2s0-.2,0-.2v-.2s0-.2,0-.2v-.2c0,0-.1-.2-.1-.2v-.2c0,0-.1-.2-.1-.2v-.2c0,0-.1-.1-.1-.1h0c0-.1,0-.3,0-.3h0c0-.1,0-.3,0-.3h0c0-.1,0-.3,0-.3h0c0-.1,0-.3,0-.3h0c0-.1,0-.3,0-.3h0c0-.1,0-.3,0-.3h0c0-.1,0-.2,0-.2h0c0-.1,0-.2,0-.2h0c0-.1-.1-.2-.1-.2h-.1c0-.1-.1-.2-.1-.2h-.1c0-.1-.1-.2-.1-.2h-.1c0-.1-.1-.2-.1-.2h-.1c0-.1-.1-.2-.1-.2h-.1c0,0-.1-.2-.1-.2h-.1c0,0-.1-.2-.1-.2h-.1c0,0-.1-.2-.1-.2h-.1c0,0-.1-.2-.1-.2h-.1c0,0-.1-.2-.1-.2h-.1c0,0-.1-.1-.1-.1h-.1c0,0-.1-.1-.1-.1h-.1c0,0-.1-.1-.1-.1h-.1c0,0-.2-.1-.2-.1h-.2c0,0-.2-.1-.2-.1h-.2c0,0-.2-.1-.2-.1h-.2s-.2,0-.2,0h-.2s-.2,0-.2,0h-.2s-.2,0-.2,0h-.2s-.2,0-.2,0h-.2s-.2,0-.2,0h-.2s-.2,0-.2,0h-.2s-.2,0-.2,0h-.2s-.2,0-.2,0h-.2s-.2,0-.2,0h-.2s-.2,0-.2,0h-.2s-.2,0-.2,0h-.2s-.2,0-.2,0h-.2s-.2,0-.2,0h-.2s-.2,0-.2,0h-.2s-.2,0-.2,0h-.2s-.2,0-.2,0h-.2s-.2,0-.2,0h-.2s-.2,0-.2,0h-.2c0,0-.2.1-.2.1h-.2c0,0-.2.1-.2.1h-.2c0,0-.2.1-.2.1h-.2c0,0-.2.1-.2.1h-.2c0,0-.3.2-.3.2h-.3c0,0-.3.2-.3.2h-.3c0,0-.3.2-.3.2h-.3c0,0-.3.2-.3.2h-.3c0,.1-.3.2-.3.2h-.3c0,.1-.3.2-.3.2h-.3c0,.1-.3.2-.3.2h-.3c0,.1-.3.3-.3.3h-.3c0,.1-.3.3-.3.3h-.3c0,.1-.3.3-.3.3h-.3c0,.1-.3.3-.3.3l-.3.2-.3.2-.3.2-.3.2-.3.2-.3.2-.3.2-.3.2-.3.2-.3.2-.3.2-.3.2-.3.2-.3.2-.3.2-.3.2-.3.2-.3.2-.3.2-.3.2-.3.2-.3.2-.3.2-.3.2-.3.2-.3.2-.3.2-.3.2-.3.3-.3.3-.3.3-.3.3-.3.3-.3.3-.3.3-.5.5-.5.5-.4.5-.4.4-.4.4-.4.4-.4.4-.4.4-.3.4-.3.4-.3.4-.3.4-.3.4-.3.4-.3.4-.3.4-.2.4-.2.4-.2.4-.2.3-.2.3-.2.3-.2.3-.2.3-.2.4-.2.4-.2.4-.2.4-.2.4-.2.4-.2.4-.2.4-3.6,8.6.3.2.3.2.3.2.3.2.3.2.3.2.3.2.3.2.3.2.3.2.3.2.3.2.3.2.3.2.3.2.3.2.3.2.3.2h0"/>
    <path class="st0" d="M573.2,783.1h.3c0,0,.8.2.8.2l1.5.3,1.4.3h.7c0,.1.7.2.7.2h.6c0,.1.6.2.6.2h.6c0,0,.3.1.3.1h.3s.3,0,.3,0h.3s.3,0,.3,0h.3s.3,0,.3,0h.3s.3,0,.3,0h.3s.3,0,.3,0h.3s.3,0,.3,0h.3s.3,0,.3,0h.3s.3,0,.3,0h.3s.3,0,.3,0h.3s.3,0,.3,0h.3s.3-.1.3-.1h.3c0,0,.3-.1.3-.1h.3c0,0,.3-.1.3-.1h.4c0,0,.4-.2.4-.2h.4c0,0,.4-.2.4-.2h.4c0-.1.4-.2.4-.2h.4c0-.1.4-.3.4-.3h.4c0-.1.4-.3.4-.3l.4-.2c2.6-1,3.6,1.6,1,2.6l-.4.2-.4.2-.4.2h-.4c0,.1-.4.3-.4.3h-.4c0,.1-.4.3-.4.3h-.4c0,.1-.4.2-.4.2h-.4c0,.1-.4.2-.4.2h-.4c0,0-.4.2-.4.2h-.4c0,0-.4.1-.4.1h-.4c0,0-.4.1-.4.1h-.4s-.4,0-.4,0h-.4s-.4,0-.4,0h-.4s-.4,0-.4,0h-.3s-.3,0-.3,0h-.3s-.3,0-.3,0h-.3s-.3,0-.3,0h-.3s-.3,0-.3,0h-.3s-.3,0-.3,0h-.3s-.3,0-.3,0h-.3s-.3,0-.3,0h-.3s-.7-.1-.7-.1h-.7c0-.1-.7-.2-.7-.2h-.7c0-.1-.7-.3-.7-.3l-1.4-.3-1.5-.3h-.5c0,0,0,0,0,0v.4s0,.4,0,.4v.4s0,.4,0,.4v.4s0,.4,0,.4v.4s0,.4,0,.4v.4c0,0-.1.4-.1.4v.4c0,0-.1.4-.1.4v.4c0,0-.1.4-.1.4v.4c0,0-.2.4-.2.4v.4c0,0-.2.4-.2.4l8.6,3.6.4.2.4.2h.4c0,.1.4.3.4.3h.4c0,.1.4.3.4.3h.4c0,.1.4.2.4.2h.4c0,.1.4.2.4.2h.4c0,.1.4.2.4.2h.4c0,0,.4.2.4.2h.4c0,0,.4.2.4.2h.4c0,0,.4.1.4.1h.5c0,0,.5.1.5.1h.5c0,0,.5.1.5.1h.5s.5,0,.5,0h.5s.6,0,.6,0h.6s.6,0,.6,0h.6s.6,0,.6,0h.7s.7,0,.7,0h.4s.4,0,.4,0h.4s.4,0,.4,0h.4s.4,0,.4,0h.4s.4,0,.4,0h.4s.4,0,.4,0h.4s.4,0,.4,0h.4s.4,0,.4,0h.4s.4,0,.4,0h.3s.3,0,.3,0h.3s.3-.1.3-.1h.3c0,0,.3-.1.3-.1h.3c0,0,.3-.1.3-.1h.3c0,0,.3-.1.3-.1h.3c0,0,.3-.1.3-.1h.3c0,0,.3-.1.3-.1h.3c0,0,.3-.2.3-.2h.3c0,0,.3-.2.3-.2h.3c0,0,.3-.2.3-.2h.3c0,0,.3-.2.3-.2h.3c0,0,.3-.2.3-.2h.3c0,0,.3-.2.3-.2h.3c0,0,.3-.2.3-.2h.3c0-.1.3-.2.3-.2h.3c0-.1.3-.2.3-.2h.3c0-.1.3-.2.3-.2h.3c0-.1.2-.2.2-.2h.2c0-.1.2-.2.2-.2h.2c0-.1.2-.2.2-.2h.2c0-.1.2-.2.2-.2h.2c0-.1.2-.3.2-.3h.2c0-.1.2-.3.2-.3h.2c0-.1.2-.3.2-.3h.2c0-.1.2-.3.2-.3h.2c0-.1.2-.3.2-.3h.2c0-.1.2-.3.2-.3h.2c0-.1.2-.3.2-.3h.2c0-.1.2-.3.2-.3h.2c0-.1.2-.3.2-.3h.2c0-.1.2-.3.2-.3h.2c0-.1.2-.3.2-.3h.1c0-.1.1-.3.1-.3h.1c0-.1.1-.3.1-.3h.1c0-.1.1-.3.1-.3h.1c0-.1.1-.3.1-.3h.1c0-.1.1-.3.1-.3h.1c0-.1.1-.3.1-.3h.1c0-.1.1-.3.1-.3h0c0-.1,0-.3,0-.3h0c0-.1,0-.3,0-.3h0c0-.1,0-.3,0-.3h0c0-.1,0-.3,0-.3h0c0-.1,0-.3,0-.3h0c0-.1,0-.3,0-.3h0c0-.1,0-.3,0-.3h0c0-.1,0-.3,0-.3h0c0-.1,0-.3,0-.3h0c0-.1,0-.3,0-.3v-.2s0-.2,0-.2v-.2s0-.2,0-.2v-.2s0-.2,0-.2v-.2s0-.2,0-.2v-.2s0-.2,0-.2v-.2s0-.2,0-.2v-.2s0-.2,0-.2v-.2s0-.2,0-.2v-.2s0-.2,0-.2v-.2s0-.2,0-.2v-.2s0-.2,0-.2v-.2s0-.2,0-.2v-.2s0-.2,0-.2v-.2s0-.2,0-.2h0c0-.1,0-.3,0-.3h0c0-.1,0-.3,0-.3h0c0-.1,0-.3,0-.3h0c0-.1,0-.3,0-.3h0c0-.1,0-.3,0-.3h0c0-.1,0-.3,0-.3h0c0-.1,0-.3,0-.3h0c0-.1,0-.3,0-.3h0c0-.1,0-.3,0-.3h0c0-.1,0-.3,0-.3h-.1c0-.1-.1-.3-.1-.3h-.1c0-.1-.1-.3-.1-.3h-.1c0-.1-.1-.3-.1-.3h-.1c0-.1-.1-.3-.1-.3h-.1c0-.1-.1-.3-.1-.3h-.1c0-.1-.1-.3-.1-.3h-.1c0-.1-.1-.3-.1-.3h-.2c0-.1-.2-.3-.2-.3h-.2c0-.1-.2-.3-.2-.3h-.2c0-.1-.2-.3-.2-.3h-.2c0-.1-.2-.3-.2-.3h-.2c0-.1-.2-.3-.2-.3h-.2c0-.1-.2-.3-.2-.3h-.2c0-.1-.2-.3-.2-.3h-.2c0-.1-.2-.3-.2-.3h-.2c0-.1-.2-.3-.2-.3h-.2c0-.1-.2-.3-.2-.3h-.2c0-.1-.2-.3-.2-.3h-.2c0-.1-.2-.2-.2-.2h-.2c0-.1-.2-.2-.2-.2h-.2c0-.1-.2-.2-.2-.2h-.2c0-.1-.3-.2-.3-.2h-.3c0-.1-.3-.2-.3-.2h-.3c0-.1-.3-.2-.3-.2h-.3c0-.1-.3-.2-.3-.2h-.3c0-.1-.3-.2-.3-.2h-.3c0,0-.3-.2-.3-.2h-.3c0,0-.3-.2-.3-.2h-.3c0,0-.3-.2-.3-.2h-.3c0,0-.3-.2-.3-.2h-.3c0,0-.3-.2-.3-.2h-.3c0,0-.3-.2-.3-.2h-.3c0,0-.3-.1-.3-.1h-.3c0,0-.3-.1-.3-.1h-.3c0,0-.3-.1-.3-.1h-.3c0,0-.3-.1-.3-.1h-.3c0,0-.3-.1-.3-.1h-.3c0,0-.3-.1-.3-.1h-.3s-.3,0-.3,0h-.4s-.4,0-.4,0h-.4s-.4,0-.4,0h-.4s-.4,0-.4,0h-.4s-.4,0-.4,0h-.4s-.4,0-.4,0h-.4s-.4,0-.4,0h-.4s-.4,0-.4,0h-.4s-.4,0-.4,0h-.7s-.7,0-.7,0h-.6s-.6,0-.6,0h-.6s-.6,0-.6,0h-.6s-.5,0-.5,0h-.5s-.5,0-.5,0h-.5c0,0-.5.1-.5.1h-.5c0,0-.5.1-.5.1h-.4c0,0-.4.1-.4.1h-.4c0,0-.4.2-.4.2h-.4c0,0-.4.2-.4.2h-.4c0,0-.4.2-.4.2h-.4c0,.1-.4.2-.4.2h-.4c0,.1-.4.2-.4.2h-.4c0,.1-.4.3-.4.3h-.4c0,.1-.4.3-.4.3l-.4.2-.4.2-8.6,3.6v.4c0,0,.2.4.2.4v.4c0,0,.2.4.2.4v.4c0,0,.1.4.1.4v.4c0,0,.1.4.1.4v.4c0,0,.1.4.1.4v.4s0,.4,0,.4v.4s0,.4,0,.4v.4s0,.4,0,.4v.4s0,.4,0,.4h0"/>
    <path class="st0" d="M564.6,806.7l.2.2.4.6.8,1.2.8,1.2.4.6.4.5.4.5.4.5.4.5.2.2.2.2.2.2.2.2.2.2.2.2.2.2.2.2.2.2.2.2.2.2.2.2.2.2.2.2.2.2.2.2.2.2.2.2.2.2.3.2.3.2.3.2.3.2.3.2.3.2.3.2.3.2.3.2.3.2.3.2.3.2.3.2.4.2.4.2.4.2.4.2.4.2.4.2c2.6,1.2,1.4,3.7-1.2,2.6l-.4-.2-.4-.2-.4-.2-.4-.2-.4-.2-.4-.2-.4-.2-.4-.2-.4-.2-.4-.2-.3-.2-.3-.2-.3-.2-.3-.2-.3-.2-.3-.2-.3-.2-.3-.2-.3-.2-.3-.2-.3-.2-.3-.2-.3-.2-.3-.2-.3-.2-.2-.2-.2-.2-.2-.2-.2-.2-.2-.2-.2-.3-.2-.3-.2-.3-.2-.3-.2-.3-.2-.3-.2-.3-.2-.3-.4-.5-.4-.5-.4-.6-.4-.6-.4-.6-.8-1.2-.8-1.2-.3-.4h0s-.3.3-.3.3l-.3.2-.3.2-.3.2-.3.2-.3.2-.3.2-.3.2-.3.2-.3.2-.3.2-.3.2-.3.2-.3.2-.3.2-.3.2-.3.2-.3.2,3.6,8.6.2.4.2.4.2.4.2.4.2.4.2.4.2.4.2.4.2.3.2.3.2.3.2.3.2.3.2.4.2.4.2.4.3.4.3.4.3.4.3.4.3.4.3.4.3.4.3.4.4.4.4.4.4.4.4.4.4.4.4.5.5.5.5.5.3.3.3.3.3.3.3.3.3.3.3.3.3.3.3.2.3.2.3.2.3.2.3.2.3.2.3.2.3.2.3.2.3.2.3.2.3.2.3.2.3.2.3.2.3.2.3.2.3.2.3.2.3.2.3.2.3.2.3.2.3.2.3.2.3.2.3.2.3.2h.3c0,.1.3.3.3.3h.3c0,.1.3.3.3.3h.3c0,.1.3.3.3.3h.3c0,.1.3.3.3.3h.3c0,.1.3.2.3.2h.3c0,.1.3.2.3.2h.3c0,.1.3.2.3.2h.3c0,.1.3.2.3.2h.3c0,0,.3.2.3.2h.3c0,0,.3.2.3.2h.3c0,0,.2.2.2.2h.2c0,0,.2.1.2.1h.2c0,0,.2.1.2.1h.2c0,0,.2.1.2.1h.2c0,0,.2.1.2.1h.2s.2,0,.2,0h.2s.2,0,.2,0h.2s.2,0,.2,0h.2s.2,0,.2,0h.2s.2,0,.2,0h.2s.2,0,.2,0h.2s.2,0,.2,0h.2s.2,0,.2,0h.2s.2,0,.2,0h.2s.2,0,.2,0h.2s.2,0,.2,0h.2s.2,0,.2,0h.2s.2,0,.2,0h.2s.2,0,.2,0h.2s.2,0,.2,0h.2s.2,0,.2,0h.2s.2,0,.2,0h.2s.2,0,.2,0h.2c0,0,.2-.1.2-.1h.2c0,0,.2-.1.2-.1h.2c0,0,.1-.1.1-.1h.1c0,0,.1-.1.1-.1h.1c0,0,.1-.1.1-.1h.1c0,0,.1-.1.1-.1h.1c0,0,.1-.2.1-.2h.1c0,0,.1-.2.1-.2h.1c0,0,.1-.2.1-.2h.1c0,0,.1-.2.1-.2h.1c0,0,.1-.2.1-.2h.1c0,0,.1-.2.1-.2h.1c0-.1.1-.2.1-.2h.1c0-.1.1-.2.1-.2h.1c0-.1.1-.2.1-.2h.1c0-.1,0-.2,0-.2h0c0-.1,0-.2,0-.2h0c0-.1,0-.2,0-.2h0c0-.1,0-.3,0-.3h0c0-.1,0-.3,0-.3h0c0-.1,0-.3,0-.3h0c0-.1,0-.3,0-.3h0c0-.1,0-.3,0-.3h0c0-.1,0-.3,0-.3h0c0-.1,0-.3,0-.3v-.2c0,0,.1-.2.1-.2v-.2c0,0,.1-.2.1-.2v-.2s0-.2,0-.2v-.2s0-.2,0-.2v-.2s0-.2,0-.2v-.2s0-.2,0-.2v-.2s0-.2,0-.2v-.2s0-.2,0-.2v-.2s0-.2,0-.2v-.2s0-.2,0-.2v-.2s0-.2,0-.2v-.2s0-.2,0-.2v-.2s0-.2,0-.2v-.2s0-.2,0-.2v-.2s0-.2,0-.2v-.2s0-.2,0-.2v-.2s0-.2,0-.2v-.2s0-.2,0-.2v-.2s0-.2,0-.2v-.2s0-.2,0-.2v-.2c0,0-.1-.2-.1-.2v-.2c0,0-.1-.2-.1-.2v-.2c0,0-.1-.2-.1-.2v-.2c0,0-.1-.2-.1-.2v-.2c0,0-.2-.3-.2-.3v-.3c0,0-.2-.3-.2-.3v-.3c0,0-.2-.3-.2-.3v-.3c0,0-.2-.3-.2-.3v-.3c-.1,0-.2-.3-.2-.3v-.3c-.1,0-.2-.3-.2-.3v-.3c-.1,0-.2-.3-.2-.3v-.3c-.1,0-.3-.3-.3-.3v-.3c-.1,0-.3-.3-.3-.3v-.3c-.1,0-.3-.3-.3-.3v-.3c-.1,0-.3-.3-.3-.3l-.2-.3-.2-.3-.2-.3-.2-.3-.2-.3-.2-.3-.2-.3-.2-.3-.2-.3-.2-.3-.2-.3-.2-.3-.2-.3-.2-.3-.2-.3-.2-.3-.2-.3-.2-.3-.2-.3-.2-.3-.2-.3-.2-.3-.2-.3-.2-.3-.2-.3-.2-.3-.2-.3-.2-.3-.3-.3-.3-.3-.3-.3-.3-.3-.3-.3-.3-.3-.3-.3-.5-.5-.5-.5-.5-.4-.4-.4-.4-.4-.4-.4-.4-.4-.4-.4-.4-.3-.4-.3-.4-.3-.4-.3-.4-.3-.4-.3-.4-.3-.4-.3-.4-.2-.4-.2-.4-.2-.3-.2-.3-.2-.3-.2-.3-.2-.3-.2-.4-.2-.4-.2-.4-.2-.4-.2-.4-.2-.4-.2-.4-.2-.4-.2-8.6-3.6-.2.3-.2.3-.2.3-.2.3-.2.3-.2.3-.2.3-.2.3-.2.3-.2.3-.2.3-.2.3-.2.3-.2.3-.2.3-.2.3-.2.3-.2.3h0"/>
    <path class="st0" d="M541.8,817.4v.3c0,0-.2.8-.2.8l-.3,1.5-.3,1.4v.7c-.1,0-.2.7-.2.7v.6c-.1,0-.2.6-.2.6v.6c0,0-.1.3-.1.3v.3s0,.3,0,.3v.3s0,.3,0,.3v.3s0,.3,0,.3v.3s0,.3,0,.3v.3s0,.3,0,.3v.3s0,.3,0,.3v.3s0,.3,0,.3v.3s0,.3,0,.3v.3s0,.3,0,.3v.3s0,.3,0,.3v.3s.1.3.1.3v.3c0,0,.1.3.1.3v.3c0,0,.1.3.1.3v.4c0,0,.2.4.2.4v.4c0,0,.2.4.2.4v.4c.1,0,.2.4.2.4v.4c.1,0,.3.4.3.4v.4c.1,0,.3.4.3.4l.2.4c1,2.6-1.6,3.6-2.6,1l-.2-.4-.2-.4-.2-.4v-.4c-.1,0-.3-.4-.3-.4v-.4c-.1,0-.3-.4-.3-.4v-.4c-.1,0-.2-.4-.2-.4v-.4c-.1,0-.2-.4-.2-.4v-.4c0,0-.2-.4-.2-.4v-.4c0,0-.1-.4-.1-.4v-.4c0,0-.1-.4-.1-.4v-.4s0-.4,0-.4v-.4s0-.4,0-.4v-.4s0-.4,0-.4v-.3s0-.3,0-.3v-.3s0-.3,0-.3v-.3s0-.3,0-.3v-.3s0-.3,0-.3v-.3s0-.3,0-.3v-.3s0-.3,0-.3v-.3s0-.3,0-.3v-.3s.1-.7.1-.7v-.7c.1,0,.2-.7.2-.7v-.7c.1,0,.3-.7.3-.7l.3-1.4.3-1.5v-.5c0,0,0,0,0,0h-.4s-.4,0-.4,0h-.4s-.4,0-.4,0h-.4s-.4,0-.4,0h-.4s-.4,0-.4,0h-.4c0,0-.4-.1-.4-.1h-.4c0,0-.4-.1-.4-.1h-.4c0,0-.4-.1-.4-.1h-.4c0,0-.4-.2-.4-.2h-.4c0,0-.4-.2-.4-.2l-3.6,8.6-.2.4-.2.4v.4c-.1,0-.3.4-.3.4v.4c-.1,0-.3.4-.3.4v.4c-.1,0-.2.4-.2.4v.4c-.1,0-.2.4-.2.4v.4c-.1,0-.2.4-.2.4v.4c0,0-.2.4-.2.4v.4c0,0-.2.4-.2.4v.4c0,0-.1.4-.1.4v.5c0,0-.1.5-.1.5v.5c0,0-.1.5-.1.5v.5s0,.5,0,.5v.5s0,.6,0,.6v.6s0,.6,0,.6v.6s0,.6,0,.6v.7s0,.7,0,.7v.4s0,.4,0,.4v.4s0,.4,0,.4v.4s0,.4,0,.4v.4s0,.4,0,.4v.4s0,.4,0,.4v.4s0,.4,0,.4v.4s0,.4,0,.4v.4s0,.4,0,.4v.3s0,.3,0,.3v.3s.1.3.1.3v.3c0,0,.1.3.1.3v.3c0,0,.1.3.1.3v.3c0,0,.1.3.1.3v.3c0,0,.1.3.1.3v.3c0,0,.1.3.1.3v.3c0,0,.2.3.2.3v.3c0,0,.2.3.2.3v.3c0,0,.2.3.2.3v.3c0,0,.2.3.2.3v.3c0,0,.2.3.2.3v.3c0,0,.2.3.2.3v.3c0,0,.2.3.2.3v.3c.1,0,.2.3.2.3v.3c.1,0,.2.3.2.3v.3c.1,0,.2.3.2.3v.3c.1,0,.2.2.2.2v.2c.1,0,.2.2.2.2v.2c.1,0,.2.2.2.2v.2c.1,0,.2.2.2.2v.2c.1,0,.3.2.3.2v.2c.1,0,.3.2.3.2v.2c.1,0,.3.2.3.2v.2c.1,0,.3.2.3.2v.2c.1,0,.3.2.3.2v.2c.1,0,.3.2.3.2v.2c.1,0,.3.2.3.2v.2c.1,0,.3.2.3.2v.2c.1,0,.3.2.3.2v.2c.1,0,.3.2.3.2v.2c.1,0,.3.2.3.2h.1c0,.1.1.3.1.3h.1c0,.1.1.3.1.3h.1c0,.1.1.3.1.3h.1c0,.1.1.3.1.3h.1c0,.1.1.2.1.2h.1c0,.1.1.2.1.2h.1c0,.1.1.2.1.2h.1c0,0,.1.2.1.2h.1c0,0,.1.2.1.2h.1c0,0,.1.2.1.2h.1c0,0,.1.2.1.2h.1c0,0,.1.1.1.1h.1c0,0,.1.1.1.1h.1c0,0,.1.1.1.1h.1c0,0,.1.1.1.1h.1s.1,0,.1,0h.1s.1,0,.1,0h.2s.2,0,.2,0h.2s.2,0,.2,0h.2s.2,0,.2,0h.2s.2,0,.2,0h.2s.2,0,.2,0h.2s.2,0,.2,0h.2s.2,0,.2,0h.2s.2,0,.2,0h.2s.2,0,.2,0h.2s.2,0,.2,0h.2s.2,0,.2,0h.2s.2,0,.2,0h.2s.2,0,.2,0h.2s.2,0,.2,0h.1s.1,0,.1,0h.1s.1,0,.1,0h.1c0,0,.1-.1.1-.1h.1c0,0,.1-.1.1-.1h.1c0,0,.1-.1.1-.1h.1c0,0,.1-.1.1-.1h.1c0,0,.1-.2.1-.2h.1c0,0,.1-.2.1-.2h.1c0,0,.1-.2.1-.2h.1c0,0,.1-.2.1-.2h.1c0-.1.1-.2.1-.2h.1c0-.1.1-.2.1-.2h.1c0-.1.1-.2.1-.2h.1c0-.1.1-.3.1-.3h.1c0-.1.1-.3.1-.3h.1c0-.1.1-.3.1-.3h.1c0-.1.1-.3.1-.3v-.2c.1,0,.3-.2.3-.2v-.2c.1,0,.3-.2.3-.2v-.2c.1,0,.3-.2.3-.2v-.2c.1,0,.3-.2.3-.2v-.2c.1,0,.3-.2.3-.2v-.2c.1,0,.3-.2.3-.2v-.2c.1,0,.3-.2.3-.2v-.2c.1,0,.3-.2.3-.2v-.2c.1,0,.3-.2.3-.2v-.2c.1,0,.3-.2.3-.2v-.2c.1,0,.3-.2.3-.2v-.2c.1,0,.2-.2.2-.2v-.2c.1,0,.2-.2.2-.2v-.2c.1,0,.2-.2.2-.2v-.2c.1,0,.2-.3.2-.3v-.3c.1,0,.2-.3.2-.3v-.3c.1,0,.2-.3.2-.3v-.3c.1,0,.2-.3.2-.3v-.3c.1,0,.2-.3.2-.3v-.3c0,0,.2-.3.2-.3v-.3c0,0,.2-.3.2-.3v-.3c0,0,.2-.3.2-.3v-.3c0,0,.2-.3.2-.3v-.3c0,0,.2-.3.2-.3v-.3c0,0,.2-.3.2-.3v-.3c0,0,.1-.3.1-.3v-.3c0,0,.1-.3.1-.3v-.3c0,0,.1-.3.1-.3v-.3c0,0,.1-.3.1-.3v-.3c0,0,.1-.3.1-.3v-.3c0,0,.1-.3.1-.3v-.3s0-.3,0-.3v-.4s0-.4,0-.4v-.4s0-.4,0-.4v-.4s0-.4,0-.4v-.4s0-.4,0-.4v-.4s0-.4,0-.4v-.4s0-.4,0-.4v-.4s0-.4,0-.4v-.4s0-.4,0-.4v-.7s0-.7,0-.7v-.6s0-.6,0-.6v-.6s0-.6,0-.6v-.6s0-.5,0-.5v-.5s0-.5,0-.5v-.5c0,0-.1-.5-.1-.5v-.5c0,0-.1-.5-.1-.5v-.4c0,0-.1-.4-.1-.4v-.4c0,0-.2-.4-.2-.4v-.4c0,0-.2-.4-.2-.4v-.4c0,0-.2-.4-.2-.4v-.4c-.1,0-.2-.4-.2-.4v-.4c-.1,0-.2-.4-.2-.4v-.4c-.1,0-.3-.4-.3-.4v-.4c-.1,0-.3-.4-.3-.4l-.2-.4-.2-.4-3.6-8.6h-.4c0,0-.4.2-.4.2h-.4c0,0-.4.2-.4.2h-.4c0,0-.4.1-.4.1h-.4c0,0-.4.1-.4.1h-.4c0,0-.4.1-.4.1h-.4s-.4,0-.4,0h-.4s-.4,0-.4,0h-.4s-.4,0-.4,0h-.4s-.4,0-.4,0h0"/>
    <path class="st0" d="M518.2,808.8l-.2.2-.6.4-1.2.8-1.2.8-.6.4-.5.4-.5.4-.5.4-.5.4-.2.2-.2.2-.2.2-.2.2-.2.2-.2.2-.2.2-.2.2-.2.2-.2.2-.2.2-.2.2-.2.2-.2.2-.2.2-.2.2-.2.2-.2.2-.2.2-.2.3-.2.3-.2.3-.2.3-.2.3-.2.3-.2.3-.2.3-.2.3-.2.3-.2.3-.2.3-.2.3-.2.4-.2.4-.2.4-.2.4-.2.4-.2.4c-1.2,2.6-3.7,1.4-2.6-1.2l.2-.4.2-.4.2-.4.2-.4.2-.4.2-.4.2-.4.2-.4.2-.4.2-.4.2-.3.2-.3.2-.3.2-.3.2-.3.2-.3.2-.3.2-.3.2-.3.2-.3.2-.3.2-.3.2-.3.2-.3.2-.3.2-.2.2-.2.2-.2.2-.2.2-.2.3-.2.3-.2.3-.2.3-.2.3-.2.3-.2.3-.2.3-.2.5-.4.5-.4.6-.4.6-.4.6-.4,1.2-.8,1.2-.8.4-.3h0s-.2-.3-.2-.3l-.2-.3-.2-.3-.2-.3-.2-.3-.2-.3-.2-.3-.2-.3-.2-.3-.2-.3-.2-.3-.2-.3-.2-.3-.2-.3-.2-.3-.2-.3-.2-.3-.2-.3-8.6,3.6-.4.2-.4.2-.4.2-.4.2-.4.2-.4.2-.4.2-.4.2-.3.2-.3.2-.3.2-.3.2-.3.2-.4.2-.4.2-.4.2-.4.3-.4.3-.4.3-.4.3-.4.3-.4.3-.4.3-.4.3-.4.4-.4.4-.4.4-.4.4-.4.4-.5.4-.5.5-.5.5-.3.3-.3.3-.3.3-.3.3-.3.3-.3.3-.3.3-.2.3-.2.3-.2.3-.2.3-.2.3-.2.3-.2.3-.2.3-.2.3-.2.3-.2.3-.2.3-.2.3-.2.3-.2.3-.2.3-.2.3-.2.3-.2.3-.2.3-.2.3-.2.3-.2.3-.2.3-.2.3-.2.3-.2.3-.2.3v.3c-.1,0-.3.3-.3.3v.3c-.1,0-.3.3-.3.3v.3c-.1,0-.3.3-.3.3v.3c-.1,0-.3.3-.3.3v.3c-.1,0-.2.3-.2.3v.3c-.1,0-.2.3-.2.3v.3c-.1,0-.2.3-.2.3v.3c-.1,0-.2.3-.2.3v.3c0,0-.2.3-.2.3v.3c0,0-.2.3-.2.3v.3c0,0-.2.2-.2.2v.2c0,0-.1.2-.1.2v.2c0,0-.1.2-.1.2v.2c0,0-.1.2-.1.2v.2c0,0-.1.2-.1.2v.2s0,.2,0,.2v.2s0,.2,0,.2v.2s0,.2,0,.2v.2s0,.2,0,.2v.2s0,.2,0,.2v.2s0,.2,0,.2v.2s0,.2,0,.2v.2s0,.2,0,.2v.2s0,.2,0,.2v.2s0,.2,0,.2v.2s0,.2,0,.2v.2s0,.2,0,.2v.2s0,.2,0,.2v.2s0,.2,0,.2v.2s0,.2,0,.2v.2s0,.2,0,.2v.2s0,.2,0,.2v.2s0,.2,0,.2v.2c0,0,.1.2.1.2v.2c0,0,.1.2.1.2v.2c0,0,.1.1.1.1h0c0,.1,0,.3,0,.3h0c0,.1,0,.3,0,.3h0c0,.1,0,.3,0,.3h0c0,.1,0,.3,0,.3h0c0,.1,0,.3,0,.3h0c0,.1,0,.3,0,.3h0c0,.1,0,.2,0,.2h0c0,.1,0,.2,0,.2h0c0,.1.1.2.1.2h.1c0,.1.1.2.1.2h.1c0,.1.1.2.1.2h.1c0,.1.1.2.1.2h.1c0,.1.1.2.1.2h.1c0,0,.1.2.1.2h.1c0,0,.1.2.1.2h.1c0,0,.1.2.1.2h.1c0,0,.1.2.1.2h.1c0,0,.1.2.1.2h.1c0,0,.1.1.1.1h.1c0,0,.1.1.1.1h.1c0,0,.1.1.1.1h.1c0,0,.2.1.2.1h.2c0,0,.2.1.2.1h.2c0,0,.2.1.2.1h.2s.2,0,.2,0h.2s.2,0,.2,0h.2s.2,0,.2,0h.2s.2,0,.2,0h.2s.2,0,.2,0h.2s.2,0,.2,0h.2s.2,0,.2,0h.2s.2,0,.2,0h.2s.2,0,.2,0h.2s.2,0,.2,0h.2s.2,0,.2,0h.2s.2,0,.2,0h.2s.2,0,.2,0h.2s.2,0,.2,0h.2s.2,0,.2,0h.2s.2,0,.2,0h.2s.2,0,.2,0h.2s.2,0,.2,0h.2c0,0,.2-.1.2-.1h.2c0,0,.2-.1.2-.1h.2c0,0,.2-.1.2-.1h.2c0,0,.2-.1.2-.1h.2c0,0,.3-.2.3-.2h.3c0,0,.3-.2.3-.2h.3c0,0,.3-.2.3-.2h.3c0,0,.3-.2.3-.2h.3c0-.1.3-.2.3-.2h.3c0-.1.3-.2.3-.2h.3c0-.1.3-.2.3-.2h.3c0-.1.3-.3.3-.3h.3c0-.1.3-.3.3-.3h.3c0-.1.3-.3.3-.3h.3c0-.1.3-.3.3-.3l.3-.2.3-.2.3-.2.3-.2.3-.2.3-.2.3-.2.3-.2.3-.2.3-.2.3-.2.3-.2.3-.2.3-.2.3-.2.3-.2.3-.2.3-.2.3-.2.3-.2.3-.2.3-.2.3-.2.3-.2.3-.2.3-.2.3-.2.3-.2.3-.3.3-.3.3-.3.3-.3.3-.3.3-.3.3-.3.5-.5.5-.5.4-.5.4-.4.4-.4.4-.4.4-.4.4-.4.3-.4.3-.4.3-.4.3-.4.3-.4.3-.4.3-.4.3-.4.2-.4.2-.4.2-.4.2-.3.2-.3.2-.3.2-.3.2-.3.2-.4.2-.4.2-.4.2-.4.2-.4.2-.4.2-.4.2-.4,3.6-8.6-.3-.2-.3-.2-.3-.2-.3-.2-.3-.2-.3-.2-.3-.2-.3-.2-.3-.2-.3-.2-.3-.2-.3-.2-.3-.2-.3-.2-.3-.2-.3-.2-.3-.2-.3-.2h0"/>
  </g>
</svg>