<?xml version="1.0" encoding="UTF-8"?>
<svg id="svg2" xmlns="http://www.w3.org/2000/svg" viewBox="0 0 1080.72 1080.72">
  <defs>
    <style>
      .cls-1, .cls-2 {
        stroke: #000;
        stroke-linecap: round;
        stroke-linejoin: round;
        stroke-width: .72px;
      }

      .cls-2 {
        fill: #fff;
      }
    </style>
  </defs>
  <path class="cls-1" d="M540.36.36C242.13.36.36,242.13.36,540.36s241.77,540,540,540,540-241.77,540-540S838.59.36,540.36.36"/>
  <g>
    <path class="cls-2" d="M568.55,564.14c-5.57-8.7-24.84-7.37-28.45,4.34-3.96-11.35-23.71-11.92-28.54-2.43-9.02,17.75,19.13,44.78,28.79,44.78,7.36,0,39.51-29.03,28.19-46.71v.03"/>
    <path class="cls-2" d="M559.17,646.91l-11.28,8.33,4.52,13.6-12.2-9.59-11.45,10.64,4.04-15.11-11.1-8.01,13.95-2.14,4.92-13.27,4.98,13.41,13.62,2.14"/>
    <path class="cls-2" d="M642.15,534.95l-11.71,8.14,1.78,11.74-8.43-7-10.43,7.98,4.06-12.27-10.55-6.55,13.04-.95,4.88-13.99,4.43,13.5,12.95-.57v-.03"/>
    <path class="cls-2" d="M461.12,535.93l-9.31,5.5,3.34,13.37-10.42-8.92-11.26,9.72,4.22-14.59-9.34-7.07,11.7-.24,4.17-13.69,4.4,14.07,12.48,1.84"/>
    <path class="cls-2" d="M437.06,300.93c-11.64,0-21.08,9.44-21.08,21.08s9.44,21.08,21.08,21.08,21.08-9.44,21.08-21.08-9.44-21.08-21.08-21.08"/>
    <path class="cls-2" d="M685.26,490.15c8.69,5.89,17.09,12.19,25.17,18.9,7.06,5.86,13.59,12.31,19.54,19.29,12.91,15.15,23.05,32.46,29.93,51.14,2.94,7.98,4.74,16.34,5.33,24.83,1.37,19.57-2.05,39.18-9.95,57.14-3.74,8.5-8.85,16.33-15.14,23.16-8.94,9.74-20.01,17.28-32.35,22.04-5.92,2.29-12.16,3.66-18.5,4.07-16.94,1.1-33.81-3.08-48.29-11.95-7.56-4.64-14.26-10.55-19.8-17.49-17.61-22.06-17.8-53.3-.48-75.58,17.32-22.27,47.66-29.77,73.36-18.13,4.47,2.03,8.7,4.57,12.59,7.57,2.2,1.7,5.04,2.33,7.76,1.73,3.17-.7,5.17-3.84,4.47-7.02-.11-.51-.29-1-.54-1.47-1.16-2.2-2.8-4.12-4.79-5.61-17.23-12.9-39.2-17.71-60.25-13.19-21.17,4.54-39.37,17.97-49.97,36.85-14.48,25.8-12.37,57.71,5.37,81.38,9.97,13.3,23.34,23.67,38.7,30.02,11.74,4.85,24.33,7.31,37.03,7.23,6.34-.04,12.65-.86,18.79-2.44,28.36-7.29,51.87-27.07,63.92-53.77,7.18-15.93,11.32-33.06,12.18-50.51.82-16.54-1.98-33.05-8.2-48.4-3.94-9.71-8.68-19.07-14.17-27.99-10.01-16.25-22.51-30.83-37.04-43.2-7.31-6.22-14.91-12.08-22.79-17.57-12.21-8.51-24.22.61-11.9,8.96"/>
    <path class="cls-2" d="M643.67,300.93c11.64,0,21.08,9.44,21.08,21.08s-9.44,21.08-21.08,21.08-21.08-9.44-21.08-21.08,9.44-21.08,21.08-21.08"/>
    <path class="cls-2" d="M540.36,407.75c-10.6,11.82-29.3,19.14-44.59,12.1-4.03-1.86-13.15-5.52-8.42-12.27,3.86-5.51,11.37,1.78,19.69,1.78,9.62,0,19.57-4.28,22.66-10.58,1.54-3.14-2.56-4.36-5.94-6.94-19.45-14.91-14.7-37.23,16.59-37.15,31.29-.08,36.04,22.24,16.59,37.15-3.38,2.58-7.48,3.8-5.94,6.94,3.09,6.29,13.04,10.58,22.66,10.58,8.32,0,15.83-7.29,19.69-1.78,4.73,6.75-4.39,10.42-8.42,12.27-15.29,7.04-33.99-.28-44.59-12.1"/>
    <path class="cls-2" d="M395.47,490.15c-8.69,5.89-17.09,12.19-25.17,18.9-7.06,5.86-13.59,12.31-19.54,19.29-12.91,15.15-23.05,32.46-29.93,51.14-2.94,7.98-4.74,16.34-5.33,24.83-1.37,19.57,2.05,39.18,9.95,57.14,3.74,8.5,8.85,16.33,15.14,23.16,8.94,9.74,20.01,17.28,32.35,22.04,5.92,2.29,12.16,3.66,18.5,4.07,16.94,1.1,33.81-3.08,48.29-11.95,7.56-4.64,14.26-10.55,19.8-17.49,17.61-22.06,17.8-53.3.48-75.58-17.32-22.27-47.66-29.77-73.36-18.13-4.47,2.03-8.7,4.57-12.59,7.57-2.2,1.7-5.04,2.33-7.76,1.73-3.17-.7-5.17-3.84-4.47-7.02.11-.51.29-1,.54-1.47,1.16-2.2,2.8-4.12,4.79-5.61,17.23-12.9,39.2-17.71,60.25-13.19,21.17,4.54,39.37,17.97,49.97,36.85,14.48,25.8,12.37,57.71-5.37,81.38-9.97,13.3-23.34,23.67-38.7,30.02-11.74,4.85-24.33,7.31-37.03,7.23-6.34-.04-12.65-.86-18.79-2.44-28.36-7.29-51.87-27.07-63.92-53.77-7.18-15.93-11.32-33.06-12.18-50.51-.82-16.54,1.98-33.05,8.2-48.4,3.94-9.71,8.68-19.07,14.17-27.99,10.01-16.25,22.51-30.83,37.04-43.2,7.31-6.22,14.91-12.08,22.79-17.57,12.21-8.51,24.22.61,11.9,8.96"/>
    <path class="cls-2" d="M660.68,885.73c-79.45,15.1-161.08,15.11-240.63,0-15.15-2.88-24,9.6-8.88,12.62,85.32,17.07,173.14,17.05,258.39,0,15.13-3.03,6.28-15.5-8.88-12.62"/>
    <path class="cls-2" d="M540.36,158.43c14.23.04,28.44,1.03,42.53,2.96,10.49,1.45,20.85,3.66,31.02,6.61,7.16,2.08,14.27,4.32,21.34,6.71,1.02-1.71,2.04-3.42,3.05-5.13,1.02-1.71,2.04-3.42,3.07-5.13,17.39-28.87,54.9-38.18,83.77-20.79.38.23.76.46,1.13.7,28.5,18.02,36.99,55.74,18.97,84.24-.23.37-.47.73-.71,1.1-3.26,4.92-7.28,9.3-11.9,12.97-4.07,3.23-8.21,6.38-12.42,9.42.75,1.83,1.49,3.67,2.24,5.5.75,1.83,1.49,3.67,2.24,5.5,7.01,17.29,11.26,35.57,12.61,54.17,1.24,17.18-.44,34.46-4.99,51.08-7.61,27.81-22.6,53.05-43.4,73.02-23.39,22.47-51.81,39.03-82.89,48.3-31.56,9.41-64.77,11.95-97.4,7.45-17.31-2.39-34.28-6.81-50.56-13.17-26.17-10.22-49.89-25.84-69.61-45.85-34.46-34.96-50.7-83.95-43.94-132.57,1.47-10.54,3.98-20.91,7.49-30.95,2.65-7.56,5.49-15.06,8.51-22.48-1.56-1.13-3.13-2.26-4.7-3.39-1.57-1.13-3.13-2.26-4.69-3.4-27.25-19.84-33.25-58.02-13.4-85.27.26-.35.52-.7.78-1.05,20.43-26.82,58.74-32.01,85.56-11.57.34.26.68.52,1.02.79,4.66,3.7,8.7,8.12,11.97,13.09,2.91,4.41,5.71,8.88,8.42,13.42,1.99-.67,3.98-1.35,5.97-2.03,1.99-.68,3.98-1.35,5.98-2.02,12.89-4.32,26.15-7.43,39.62-9.29,14.35-2,28.83-2.98,43.32-2.94v-13.94c-10.81-.02-21.62.46-32.39,1.43-15.72,1.41-31.27,4.33-46.43,8.71-1.65.48-3.28.98-4.91,1.51-1.63.53-3.26,1.06-4.89,1.57-3.19-5.02-6.86-9.71-10.96-14.02-7.05-7.42-15.58-13.27-25.04-17.18-34.47-14.24-74.17-1.03-93.24,31.02-19.07,32.05-11.75,73.24,17.21,96.75.58.47,1.18.93,1.78,1.38.6.45,1.2.9,1.8,1.35-4.44,11.33-7.97,23-10.56,34.89-4.34,19.94-5.02,40.5-2.01,60.68,4.07,27.25,14.75,53.1,31.12,75.27,17.88,24.23,40.94,44.16,67.5,58.35,18.34,9.8,37.94,17.02,58.26,21.46,38.97,8.51,79.43,7.41,117.89-3.2,29.92-8.26,57.76-22.72,81.73-42.44,21.66-17.82,38.84-40.46,50.19-66.11,10.38-23.47,15.23-49.02,14.17-74.66-.82-19.86-4.78-39.46-11.72-58.07-.39-1.03-.78-2.06-1.19-3.09-.41-1.02-.82-2.05-1.22-3.08,5.57-4.25,10.6-9.15,15-14.59,7.73-9.56,12.93-20.91,15.13-33.01,6.35-34.9-12.57-69.48-45.37-82.96-32.8-13.48-70.56-2.18-90.57,27.1-.46.68-.91,1.37-1.34,2.07-.43.7-.86,1.4-1.31,2.09-7.45-2.35-14.99-4.4-22.6-6.15-13.7-3.15-27.63-5.23-41.65-6.21-8.1-.57-16.22-.86-24.34-.87l-.02,13.94"/>
    <path class="cls-2" d="M316.88,736.1c47.75,0,86.45,38.71,86.45,86.45s-38.71,86.45-86.45,86.45-86.45-38.71-86.45-86.45,38.71-86.45,86.45-86.45v-13.4c-55.15,0-99.85,44.7-99.85,99.85,0,55.15,44.7,99.85,99.85,99.85s99.85-44.7,99.85-99.85c0-55.15-44.7-99.85-99.85-99.85v13.4"/>
    <path class="cls-2" d="M763.85,736.1c-47.75,0-86.45,38.71-86.45,86.45s38.71,86.45,86.45,86.45,86.45-38.71,86.45-86.45-38.71-86.45-86.45-86.45v-13.4c55.15,0,99.85,44.7,99.85,99.85h0c0,55.15-44.7,99.85-99.85,99.85h0c-55.15,0-99.85-44.7-99.85-99.85s44.7-99.85,99.85-99.85v13.4"/>
    <path class="cls-2" d="M540.36,756.37c-15.55,0-28.16,12.61-28.16,28.16h0c0,15.55,12.61,28.16,28.16,28.16h0c15.55,0,28.16-12.61,28.16-28.16h0c0-15.55-12.61-28.16-28.16-28.16h0"/>
    <path class="cls-2" d="M507.53,785.97l-.27-.05-.77-.15-1.46-.29-1.39-.27-.67-.13-.65-.12-.64-.11-.63-.1-.62-.09-.3-.04-.31-.04-.3-.03-.3-.03-.3-.03-.3-.02-.3-.02-.3-.02h-.3s-.3-.02-.3-.02h-.3s-.3,0-.3,0h-.3s-.31.01-.31.01h-.31s-.31.03-.31.03l-.31.02-.31.03-.32.03-.32.04-.32.04-.33.05-.33.05-.34.06-.34.07-.34.07-.35.08-.36.08-.36.09-.37.1-.37.1-.38.11-.39.12-.39.13-.4.13-.41.14-.41.15-.43.16c-2.63.99-3.63-1.65-.99-2.64l.44-.17.44-.16.44-.15.43-.15.43-.14.42-.13.41-.12.41-.11.4-.11.4-.1.39-.09.39-.09.39-.08.38-.07.38-.07.37-.06.37-.05.37-.05.36-.04.36-.04.36-.03.35-.02.35-.02h.35s.35-.02.35-.02h.34s.34,0,.34,0h.34s.34.02.34.02l.34.02.34.02.33.02.33.03.33.03.33.03.33.04.33.04.33.04.66.1.67.11.67.12.68.12.69.13,1.4.27,1.46.29.5.1v-.06s.02-.37.02-.37l.02-.37.03-.37.03-.37.04-.37.04-.37.04-.37.05-.37.05-.37.06-.37.06-.37.06-.37.07-.37.07-.36.08-.36.08-.36.09-.36.09-.37-8.63-3.58-.4-.17-.38-.15-.38-.15-.38-.14-.38-.13-.38-.13-.38-.12-.38-.12-.38-.11-.38-.11-.39-.1-.39-.1-.4-.09-.41-.09-.41-.08-.42-.08-.43-.07-.45-.07-.46-.07-.47-.06-.48-.06-.5-.05-.51-.05-.53-.04-.54-.04-.56-.03-.58-.03-.6-.02-.62-.02h-.64s-.66-.02-.66-.02h-.68s-.39,0-.39,0h-.38s-.38.01-.38.01h-.38s-.38.02-.38.02l-.37.02-.37.02-.37.02-.37.02-.37.03-.36.03-.36.03-.36.03-.36.04-.35.04-.35.04-.35.04-.35.05-.34.05-.34.05-.34.05-.34.06-.33.06-.33.06-.33.06-.32.07-.32.07-.32.07-.32.07-.31.07-.31.08-.31.08-.31.08-.3.08-.3.08-.3.09-.29.09-.29.09-.29.09-.28.09-.28.1-.28.1-.28.1-.27.1-.27.1-.27.11-.26.11-.26.11-.26.11-.25.11-.25.11-.25.11-.24.12-.24.12-.24.12-.23.12-.23.12-.23.12-.22.12-.22.13-.22.13-.21.13-.21.13-.21.13-.2.13-.2.13-.2.13-.19.14-.19.14-.19.14-.18.14-.18.14-.18.14-.17.14-.17.14-.17.14-.16.14-.16.14-.16.14-.15.14-.15.14-.14.15-.14.15-.14.15-.13.15-.13.15-.13.15-.12.15-.12.15-.12.15-.11.15-.11.15-.11.15-.1.15-.1.15-.1.15-.09.15-.09.15-.09.15-.08.15-.08.15-.08.15-.07.15-.07.15-.07.15-.06.15-.06.15-.06.15-.06.15-.05.15-.05.15-.05.15-.04.15-.04.15-.04.15-.04.15-.03.15-.03.15-.03.15-.02.15-.02.15-.02.15-.02.15v.15s-.02.15-.02.15v.16s-.01.16-.01.16v.16s0,.16,0,.16v.16s.01.16.01.16v.15s.02.15.02.15l.02.15.02.15.02.15.02.15.03.15.03.15.03.15.04.15.04.15.04.15.04.15.05.15.05.15.05.15.06.15.06.15.06.15.06.15.07.15.07.15.07.15.08.15.08.15.08.15.09.15.09.15.09.15.1.15.1.15.1.15.11.15.11.15.11.15.12.15.12.15.12.15.13.15.13.15.13.15.14.15.14.15.14.15.15.14.15.14.16.14.16.14.16.14.17.14.17.14.17.14.18.14.18.14.18.14.19.14.19.14.19.14.2.13.2.13.2.13.21.13.21.13.21.13.22.13.22.13.22.12.23.12.23.12.23.12.24.12.24.12.24.12.25.11.25.11.25.11.26.11.26.11.26.11.27.11.27.1.27.1.28.1.28.1.28.1.28.09.29.09.29.09.29.09.3.09.3.08.3.08.31.08.31.08.31.08.31.07.32.07.32.07.32.07.32.07.33.06.33.06.33.06.34.06.34.05.34.05.34.05.35.05.35.04.35.04.35.04.36.04.36.03.36.03.36.03.37.03.37.02.37.02.37.02.37.02h.38s.38.02.38.02h.38s.38.01.38.01h.39s.68,0,.68,0h.66s.64-.02.64-.02l.62-.02.6-.02.58-.03.56-.03.54-.04.53-.04.51-.05.5-.05.48-.06.47-.06.46-.07.45-.07.43-.07.42-.08.41-.08.41-.09.4-.09.39-.1.39-.1.38-.11.38-.11.38-.12.38-.12.38-.13.38-.13.38-.14.38-.15.38-.15.4-.17,8.63-3.58-.09-.37-.09-.36-.08-.36-.08-.36-.07-.36-.07-.37-.06-.37-.06-.37-.06-.37-.05-.37-.05-.37-.04-.37-.04-.37-.04-.37-.03-.37-.03-.37-.02-.37-.02-.37v-.05"/>
    <path class="cls-2" d="M516.13,762.33l-.16-.23-.44-.65-.83-1.24-.79-1.18-.38-.56-.38-.55-.38-.53-.37-.52-.38-.51-.19-.24-.19-.24-.19-.24-.19-.24-.19-.23-.2-.23-.2-.23-.2-.23-.2-.22-.21-.22-.21-.22-.21-.22-.22-.21-.22-.21-.23-.21-.23-.21-.24-.21-.24-.2-.25-.2-.25-.2-.26-.2-.27-.2-.27-.2-.28-.2-.29-.19-.29-.19-.3-.19-.31-.19-.32-.19-.33-.19-.34-.19-.35-.19-.36-.19-.37-.19-.38-.19-.39-.19-.4-.19-.42-.19c-2.56-1.16-1.4-3.73,1.16-2.57l.43.2.43.2.42.2.41.2.4.2.39.2.38.21.37.21.36.21.35.21.34.21.34.21.33.22.32.22.31.22.31.22.3.22.29.23.29.23.28.23.27.23.27.23.26.24.26.24.25.24.25.24.24.24.24.25.23.25.23.25.22.25.22.25.22.26.21.26.21.26.21.26.21.26.21.27.4.54.4.55.39.56.39.57.39.58.8,1.18.83,1.24.29.42.04-.04.28-.25.28-.25.28-.24.28-.24.29-.24.29-.23.29-.23.29-.23.3-.22.3-.22.3-.22.3-.21.31-.21.31-.21.31-.2.31-.2.32-.2.33-.2-3.58-8.63-.17-.4-.16-.38-.17-.37-.17-.37-.17-.36-.18-.36-.18-.35-.18-.35-.19-.35-.2-.35-.2-.35-.21-.35-.22-.35-.23-.35-.23-.35-.24-.36-.25-.36-.27-.36-.28-.37-.29-.38-.3-.38-.31-.39-.33-.4-.34-.4-.36-.41-.37-.42-.39-.43-.41-.44-.42-.45-.44-.46-.46-.47-.48-.48-.27-.27-.27-.27-.27-.26-.28-.26-.28-.26-.28-.25-.28-.25-.28-.25-.28-.24-.28-.24-.28-.24-.28-.23-.28-.23-.28-.23-.28-.22-.28-.22-.28-.22-.28-.21-.28-.21-.28-.2-.28-.2-.28-.2-.28-.19-.28-.19-.28-.19-.28-.18-.28-.18-.28-.18-.27-.17-.27-.17-.27-.17-.27-.16-.27-.16-.27-.16-.27-.15-.27-.15-.27-.15-.27-.14-.27-.14-.27-.13-.27-.13-.27-.13-.27-.12-.26-.12-.26-.12-.26-.11-.26-.11-.26-.11-.26-.1-.26-.1-.26-.1-.26-.09-.26-.09-.25-.09-.25-.08-.25-.08-.25-.08-.25-.07-.25-.07-.25-.07-.24-.06-.24-.06-.24-.06-.24-.05-.24-.05-.24-.05-.23-.04-.23-.04-.23-.04-.23-.04-.23-.03-.23-.03-.22-.03-.22-.02-.22-.02-.22-.02h-.22s-.21-.03-.21-.03h-.21s-.21-.01-.21-.01h-.21s-.2,0-.2,0h-.2s-.2,0-.2,0h-.2s-.2.02-.2.02h-.19s-.19.03-.19.03l-.19.02-.19.02-.18.02-.18.03-.18.03-.18.03-.18.03-.17.04-.17.04-.17.04-.17.04-.16.05-.16.05-.16.05-.16.05-.16.06-.15.06-.15.06-.15.06-.15.06-.14.07-.14.07-.14.07-.14.07-.14.07-.14.08-.13.08-.13.08-.13.08-.13.09-.13.09-.12.09-.12.09-.12.09-.12.1-.12.1-.12.1-.11.1-.11.11-.11.11-.11.11-.11.11-.1.11-.1.12-.1.12-.1.12-.09.12-.09.12-.09.12-.09.13-.09.13-.08.13-.08.13-.08.13-.08.14-.07.14-.07.14-.07.14-.07.14-.07.14-.06.15-.06.15-.06.15-.06.15-.06.16-.05.16-.05.16-.05.16-.05.16-.04.17-.04.17-.04.17-.04.17-.03.18-.03.18-.03.18-.03.18-.02.18-.02.19-.02.19-.02.19v.19s-.03.2-.03.2v.2s-.01.2-.01.2v.2s0,.2,0,.2v.21s0,.21,0,.21v.21s.02.21.02.21v.22s.03.22.03.22l.02.22.02.22.03.22.03.23.03.23.04.23.04.23.04.23.04.23.05.24.05.24.05.24.06.24.06.24.06.24.07.25.07.25.07.25.08.25.08.25.08.25.09.25.09.26.09.26.1.26.1.26.1.26.11.26.11.26.11.26.12.26.12.26.12.27.13.27.13.27.13.27.14.27.14.27.15.27.15.27.15.27.16.27.16.27.16.27.17.27.17.27.17.27.18.28.18.28.18.28.19.28.19.28.19.28.2.28.2.28.2.28.21.28.21.28.22.28.22.28.22.28.23.28.23.28.23.28.24.28.24.28.24.28.25.28.25.28.25.28.26.28.26.28.26.27.27.27.27.27.48.48.47.46.46.44.45.42.44.41.43.39.42.37.41.36.4.34.4.33.39.31.38.3.38.29.37.28.36.27.36.25.36.24.35.23.35.23.35.22.35.21.35.2.35.2.35.19.35.18.35.18.36.18.36.17.37.17.37.17.38.16.4.17,8.63,3.58.2-.33.2-.32.2-.31.2-.31.21-.31.21-.31.21-.3.22-.3.22-.3.22-.3.23-.29.23-.29.23-.29.24-.29.24-.28.24-.28.25-.28.25-.28.04-.04"/>
    <path class="cls-2" d="M538.93,751.7l.05-.27.15-.77.29-1.46.27-1.39.13-.67.12-.65.11-.64.1-.63.09-.62.04-.3.04-.31.03-.3.03-.3.03-.3.02-.3.02-.3.02-.3v-.3s.02-.3.02-.3v-.3s0-.3,0-.3v-.3s-.01-.31-.01-.31v-.31s-.03-.31-.03-.31l-.02-.31-.03-.31-.03-.32-.04-.32-.04-.32-.05-.33-.05-.33-.06-.34-.07-.34-.07-.34-.08-.35-.08-.36-.09-.36-.1-.37-.1-.37-.11-.38-.12-.39-.13-.39-.13-.4-.14-.41-.15-.41-.16-.43c-.99-2.63,1.65-3.63,2.64-.99l.17.44.16.44.15.44.15.43.14.43.13.42.12.41.11.41.11.4.1.4.09.39.09.39.08.39.07.38.07.38.06.37.05.37.05.37.04.36.04.36.03.36.02.35.02.35v.35s.02.35.02.35v.34s0,.34,0,.34v.34s-.02.34-.02.34l-.02.34-.02.34-.02.33-.03.33-.03.33-.03.33-.04.33-.04.33-.04.33-.1.66-.11.67-.12.67-.12.68-.13.69-.27,1.4-.29,1.46-.1.5h.06s.37.02.37.02l.37.02.37.03.37.03.37.04.37.04.37.04.37.05.37.05.37.06.37.06.37.06.37.07.36.07.36.08.36.08.36.09.37.09,3.58-8.63.17-.4.15-.38.15-.38.14-.38.13-.38.13-.38.12-.38.12-.38.11-.38.11-.38.1-.39.1-.39.09-.4.09-.41.08-.41.08-.42.07-.43.07-.45.07-.46.06-.47.06-.48.05-.5.05-.51.04-.53.04-.54.03-.56.03-.58.02-.6.02-.62v-.64s.02-.66.02-.66v-.68s0-.39,0-.39v-.38s-.01-.38-.01-.38v-.38s-.02-.38-.02-.38l-.02-.37-.02-.37-.02-.37-.02-.37-.03-.37-.03-.36-.03-.36-.03-.36-.04-.36-.04-.35-.04-.35-.04-.35-.05-.35-.05-.34-.05-.34-.05-.34-.06-.34-.06-.33-.06-.33-.06-.33-.07-.32-.07-.32-.07-.32-.07-.32-.07-.31-.08-.31-.08-.31-.08-.31-.08-.3-.08-.3-.09-.3-.09-.29-.09-.29-.09-.29-.09-.28-.1-.28-.1-.28-.1-.28-.1-.27-.1-.27-.11-.27-.11-.26-.11-.26-.11-.26-.11-.25-.11-.25-.11-.25-.12-.24-.12-.24-.12-.24-.12-.23-.12-.23-.12-.23-.12-.22-.13-.22-.13-.22-.13-.21-.13-.21-.13-.21-.13-.2-.13-.2-.13-.2-.14-.19-.14-.19-.14-.19-.14-.18-.14-.18-.14-.18-.14-.17-.14-.17-.14-.17-.14-.16-.14-.16-.14-.16-.14-.15-.14-.15-.15-.14-.15-.14-.15-.14-.15-.13-.15-.13-.15-.13-.15-.12-.15-.12-.15-.12-.15-.11-.15-.11-.15-.11-.15-.1-.15-.1-.15-.1-.15-.09-.15-.09-.15-.09-.15-.08-.15-.08-.15-.08-.15-.07-.15-.07-.15-.07-.15-.06-.15-.06-.15-.06-.15-.06-.15-.05-.15-.05-.15-.05-.15-.04-.15-.04-.15-.04-.15-.04-.15-.03-.15-.03-.15-.03-.15-.02-.15-.02-.15-.02-.15-.02h-.15s-.15-.02-.15-.02h-.16s-.16-.01-.16-.01h-.16s-.16,0-.16,0h-.16s-.16.01-.16.01h-.15s-.15.02-.15.02l-.15.02-.15.02-.15.02-.15.02-.15.03-.15.03-.15.03-.15.04-.15.04-.15.04-.15.04-.15.05-.15.05-.15.05-.15.06-.15.06-.15.06-.15.06-.15.07-.15.07-.15.07-.15.08-.15.08-.15.08-.15.09-.15.09-.15.09-.15.1-.15.1-.15.1-.15.11-.15.11-.15.11-.15.12-.15.12-.15.12-.15.13-.15.13-.15.13-.15.14-.15.14-.15.14-.14.15-.14.15-.14.16-.14.16-.14.16-.14.17-.14.17-.14.17-.14.18-.14.18-.14.18-.14.19-.14.19-.14.19-.13.2-.13.2-.13.2-.13.21-.13.21-.13.21-.13.22-.13.22-.12.22-.12.23-.12.23-.12.23-.12.24-.12.24-.12.24-.11.25-.11.25-.11.25-.11.26-.11.26-.11.26-.11.27-.1.27-.1.27-.1.28-.1.28-.1.28-.09.28-.09.29-.09.29-.09.29-.09.3-.08.3-.08.3-.08.31-.08.31-.08.31-.07.31-.07.32-.07.32-.07.32-.07.32-.06.33-.06.33-.06.33-.06.34-.05.34-.05.34-.05.34-.05.35-.04.35-.04.35-.04.35-.04.36-.03.36-.03.36-.03.36-.03.37-.02.37-.02.37-.02.37-.02.37v.38s-.02.38-.02.38v.38s-.01.38-.01.38v.39s0,.68,0,.68v.66s.02.64.02.64l.02.62.02.6.03.58.03.56.04.54.04.53.05.51.05.5.06.48.06.47.07.46.07.45.07.43.08.42.08.41.09.41.09.4.1.39.1.39.11.38.11.38.12.38.12.38.13.38.13.38.14.38.15.38.15.38.17.4,3.58,8.63.37-.09.36-.09.36-.08.36-.08.36-.07.37-.07.37-.06.37-.06.37-.06.37-.05.37-.05.37-.04.37-.04.37-.04.37-.03.37-.03.37-.02.37-.02h.05"/>
    <path class="cls-2" d="M562.57,760.3l.23-.16.65-.44,1.24-.83,1.18-.79.56-.38.55-.38.53-.38.52-.37.51-.38.24-.19.24-.19.24-.19.24-.19.23-.19.23-.2.23-.2.23-.2.22-.2.22-.21.22-.21.22-.21.21-.22.21-.22.21-.23.21-.23.21-.24.2-.24.2-.25.2-.25.2-.26.2-.27.2-.27.2-.28.19-.29.19-.29.19-.3.19-.31.19-.32.19-.33.19-.34.19-.35.19-.36.19-.37.19-.38.19-.39.19-.4.19-.42c1.16-2.56,3.73-1.4,2.57,1.16l-.2.43-.2.43-.2.42-.2.41-.2.4-.2.39-.21.38-.21.37-.21.36-.21.35-.21.34-.21.34-.22.33-.22.32-.22.31-.22.31-.22.3-.23.29-.23.29-.23.28-.23.27-.23.27-.24.26-.24.26-.24.25-.24.25-.24.24-.25.24-.25.23-.25.23-.25.22-.25.22-.26.22-.26.21-.26.21-.26.21-.26.21-.27.21-.54.4-.55.4-.56.39-.57.39-.58.39-1.18.8-1.24.83-.42.29.04.04.25.28.25.28.24.28.24.28.24.29.23.29.23.29.23.29.22.3.22.3.22.3.21.3.21.31.21.31.2.31.2.31.2.32.2.33,8.63-3.58.4-.17.38-.16.37-.17.37-.17.36-.17.36-.18.35-.18.35-.18.35-.19.35-.2.35-.2.35-.21.35-.22.35-.23.35-.23.36-.24.36-.25.36-.27.37-.28.38-.29.38-.3.39-.31.4-.33.4-.34.41-.36.42-.37.43-.39.44-.41.45-.42.46-.44.47-.46.48-.48.27-.27.27-.27.26-.27.26-.28.26-.28.25-.28.25-.28.25-.28.24-.28.24-.28.24-.28.23-.28.23-.28.23-.28.22-.28.22-.28.22-.28.21-.28.21-.28.2-.28.2-.28.2-.28.19-.28.19-.28.19-.28.18-.28.18-.28.18-.28.17-.27.17-.27.17-.27.16-.27.16-.27.16-.27.15-.27.15-.27.15-.27.14-.27.14-.27.13-.27.13-.27.13-.27.12-.27.12-.26.12-.26.11-.26.11-.26.11-.26.1-.26.1-.26.1-.26.09-.26.09-.26.09-.25.08-.25.08-.25.08-.25.07-.25.07-.25.07-.25.06-.24.06-.24.06-.24.05-.24.05-.24.05-.24.04-.23.04-.23.04-.23.04-.23.03-.23.03-.23.03-.22.02-.22.02-.22.02-.22v-.22s.03-.21.03-.21v-.21s.01-.21.01-.21v-.21s0-.2,0-.2v-.2s0-.2,0-.2v-.2s-.02-.2-.02-.2v-.19s-.03-.19-.03-.19l-.02-.19-.02-.19-.02-.18-.03-.18-.03-.18-.03-.18-.03-.18-.04-.17-.04-.17-.04-.17-.04-.17-.05-.16-.05-.16-.05-.16-.05-.16-.06-.16-.06-.15-.06-.15-.06-.15-.06-.15-.07-.14-.07-.14-.07-.14-.07-.14-.07-.14-.08-.14-.08-.13-.08-.13-.08-.13-.09-.13-.09-.13-.09-.12-.09-.12-.09-.12-.1-.12-.1-.12-.1-.12-.1-.11-.11-.11-.11-.11-.11-.11-.11-.11-.11-.1-.12-.1-.12-.1-.12-.1-.12-.09-.12-.09-.12-.09-.13-.09-.13-.09-.13-.08-.13-.08-.13-.08-.14-.08-.14-.07-.14-.07-.14-.07-.14-.07-.14-.07-.15-.06-.15-.06-.15-.06-.15-.06-.16-.06-.16-.05-.16-.05-.16-.05-.16-.05-.17-.04-.17-.04-.17-.04-.17-.04-.18-.03-.18-.03-.18-.03-.18-.03-.18-.02-.19-.02-.19-.02-.19-.02h-.19s-.2-.03-.2-.03h-.2s-.2-.01-.2-.01h-.2s-.2,0-.2,0h-.21s-.21,0-.21,0h-.21s-.21.02-.21.02h-.22s-.22.03-.22.03l-.22.02-.22.02-.22.03-.23.03-.23.03-.23.04-.23.04-.23.04-.23.04-.24.05-.24.05-.24.05-.24.06-.24.06-.24.06-.25.07-.25.07-.25.07-.25.08-.25.08-.25.08-.25.09-.26.09-.26.09-.26.1-.26.1-.26.1-.26.11-.26.11-.26.11-.26.12-.26.12-.27.12-.27.13-.27.13-.27.13-.27.14-.27.14-.27.15-.27.15-.27.15-.27.16-.27.16-.27.16-.27.17-.27.17-.27.17-.28.18-.28.18-.28.18-.28.19-.28.19-.28.19-.28.2-.28.2-.28.2-.28.21-.28.21-.28.22-.28.22-.28.22-.28.23-.28.23-.28.23-.28.24-.28.24-.28.24-.28.25-.28.25-.28.25-.28.26-.28.26-.27.26-.27.27-.27.27-.48.48-.46.47-.44.46-.42.45-.41.44-.39.43-.37.42-.36.41-.34.4-.33.4-.31.39-.3.38-.29.38-.28.37-.27.36-.25.36-.24.36-.23.35-.23.35-.22.35-.21.35-.2.35-.2.35-.19.35-.18.35-.18.35-.18.36-.17.36-.17.37-.17.37-.16.38-.17.4-3.58,8.63.33.2.32.2.31.2.31.2.31.21.31.21.3.21.3.22.3.22.3.22.29.23.29.23.29.23.29.24.28.24.28.24.28.25.28.25.04.04"/>
    <path class="cls-2" d="M573.2,783.1l.27.05.77.15,1.46.29,1.39.27.67.13.65.12.64.11.63.1.62.09.3.04.31.04.3.03.3.03.3.03.3.02.3.02.3.02h.3s.3.02.3.02h.3s.3,0,.3,0h.3s.31-.01.31-.01h.31s.31-.03.31-.03l.31-.02.31-.03.32-.03.32-.04.32-.04.33-.05.33-.05.34-.06.34-.07.34-.07.35-.08.36-.08.36-.09.37-.1.37-.1.38-.11.39-.12.39-.13.4-.13.41-.14.41-.15.43-.16c2.63-.99,3.63,1.65.99,2.64l-.44.17-.44.16-.44.15-.43.15-.43.14-.42.13-.41.12-.41.11-.4.11-.4.1-.39.09-.39.09-.39.08-.38.07-.38.07-.37.06-.37.05-.37.05-.36.04-.36.04-.36.03-.35.02-.35.02h-.35s-.35.02-.35.02h-.34s-.34,0-.34,0h-.34s-.34-.02-.34-.02l-.34-.02-.34-.02-.33-.02-.33-.03-.33-.03-.33-.03-.33-.04-.33-.04-.33-.04-.66-.1-.67-.11-.67-.12-.68-.12-.69-.13-1.4-.27-1.46-.29-.5-.1v.06s-.02.37-.02.37l-.02.37-.03.37-.03.37-.04.37-.04.37-.04.37-.05.37-.05.37-.06.37-.06.37-.06.37-.07.37-.07.36-.08.36-.08.36-.09.36-.09.37,8.63,3.58.4.17.38.15.38.15.38.14.38.13.38.13.38.12.38.12.38.11.38.11.39.1.39.1.4.09.41.09.41.08.42.08.43.07.45.07.46.07.47.06.48.06.5.05.51.05.53.04.54.04.56.03.58.03.6.02.62.02h.64s.66.02.66.02h.68s.39,0,.39,0h.38s.38-.01.38-.01h.38s.38-.02.38-.02l.37-.02.37-.02.37-.02.37-.02.37-.03.36-.03.36-.03.36-.03.36-.04.35-.04.35-.04.35-.04.35-.05.34-.05.34-.05.34-.05.34-.06.33-.06.33-.06.33-.06.32-.07.32-.07.32-.07.32-.07.31-.07.31-.08.31-.08.31-.08.3-.08.3-.08.3-.09.29-.09.29-.09.29-.09.28-.09.28-.1.28-.1.28-.1.27-.1.27-.1.27-.11.26-.11.26-.11.26-.11.25-.11.25-.11.25-.11.24-.12.24-.12.24-.12.23-.12.23-.12.23-.12.22-.12.22-.13.22-.13.21-.13.21-.13.21-.13.2-.13.2-.13.2-.13.19-.14.19-.14.19-.14.18-.14.18-.14.18-.14.17-.14.17-.14.17-.14.16-.14.16-.14.16-.14.15-.14.15-.14.14-.15.14-.15.14-.15.13-.15.13-.15.13-.15.12-.15.12-.15.12-.15.11-.15.11-.15.11-.15.1-.15.1-.15.1-.15.09-.15.09-.15.09-.15.08-.15.08-.15.08-.15.07-.15.07-.15.07-.15.06-.15.06-.15.06-.15.06-.15.05-.15.05-.15.05-.15.04-.15.04-.15.04-.15.04-.15.03-.15.03-.15.03-.15.02-.15.02-.15.02-.15.02-.15v-.15s.02-.15.02-.15v-.16s.01-.16.01-.16v-.16s0-.16,0-.16v-.16s-.01-.16-.01-.16v-.15s-.02-.15-.02-.15l-.02-.15-.02-.15-.02-.15-.02-.15-.03-.15-.03-.15-.03-.15-.04-.15-.04-.15-.04-.15-.04-.15-.05-.15-.05-.15-.05-.15-.06-.15-.06-.15-.06-.15-.06-.15-.07-.15-.07-.15-.07-.15-.08-.15-.08-.15-.08-.15-.09-.15-.09-.15-.09-.15-.1-.15-.1-.15-.1-.15-.11-.15-.11-.15-.11-.15-.12-.15-.12-.15-.12-.15-.13-.15-.13-.15-.13-.15-.14-.15-.14-.15-.14-.15-.15-.14-.15-.14-.16-.14-.16-.14-.16-.14-.17-.14-.17-.14-.17-.14-.18-.14-.18-.14-.18-.14-.19-.14-.19-.14-.19-.14-.2-.13-.2-.13-.2-.13-.21-.13-.21-.13-.21-.13-.22-.13-.22-.13-.22-.12-.23-.12-.23-.12-.23-.12-.24-.12-.24-.12-.24-.12-.25-.11-.25-.11-.25-.11-.26-.11-.26-.11-.26-.11-.27-.11-.27-.1-.27-.1-.28-.1-.28-.1-.28-.1-.28-.09-.29-.09-.29-.09-.29-.09-.3-.09-.3-.08-.3-.08-.31-.08-.31-.08-.31-.08-.31-.07-.32-.07-.32-.07-.32-.07-.32-.07-.33-.06-.33-.06-.33-.06-.34-.06-.34-.05-.34-.05-.34-.05-.35-.05-.35-.04-.35-.04-.35-.04-.36-.04-.36-.03-.36-.03-.36-.03-.37-.03-.37-.02-.37-.02-.37-.02-.37-.02h-.38s-.38-.02-.38-.02h-.38s-.38-.01-.38-.01h-.39s-.68,0-.68,0h-.66s-.64.02-.64.02l-.62.02-.6.02-.58.03-.56.03-.54.04-.53.04-.51.05-.5.05-.48.06-.47.06-.46.07-.45.07-.43.07-.42.08-.41.08-.41.09-.4.09-.39.1-.39.1-.38.11-.38.11-.38.12-.38.12-.38.13-.38.13-.38.14-.38.15-.38.15-.4.17-8.63,3.58.09.37.09.36.08.36.08.36.07.36.07.37.06.37.06.37.06.37.05.37.05.37.04.37.04.37.04.37.03.37.03.37.02.37.02.37v.05"/>
    <path class="cls-2" d="M564.6,806.74l.16.23.44.65.83,1.24.79,1.18.38.56.38.55.38.53.37.52.38.51.19.24.19.24.19.24.19.24.19.23.2.23.2.23.2.23.2.22.21.22.21.22.21.22.22.21.22.21.23.21.23.21.24.21.24.2.25.2.25.2.26.2.27.2.27.2.28.2.29.19.29.19.3.19.31.19.32.19.33.19.34.19.35.19.36.19.37.19.38.19.39.19.4.19.42.19c2.56,1.16,1.4,3.73-1.16,2.57l-.43-.2-.43-.2-.42-.2-.41-.2-.4-.2-.39-.2-.38-.21-.37-.21-.36-.21-.35-.21-.34-.21-.34-.21-.33-.22-.32-.22-.31-.22-.31-.22-.3-.22-.29-.23-.29-.23-.28-.23-.27-.23-.27-.23-.26-.24-.26-.24-.25-.24-.25-.24-.24-.24-.24-.25-.23-.25-.23-.25-.22-.25-.22-.25-.22-.26-.21-.26-.21-.26-.21-.26-.21-.26-.21-.27-.4-.54-.4-.55-.39-.56-.39-.57-.39-.58-.8-1.18-.83-1.24-.29-.42-.04.04-.28.25-.28.25-.28.24-.28.24-.29.24-.29.23-.29.23-.29.23-.3.22-.3.22-.3.22-.3.21-.31.21-.31.21-.31.2-.31.2-.32.2-.33.2,3.58,8.63.17.4.16.38.17.37.17.37.17.36.18.36.18.35.18.35.19.35.2.35.2.35.21.35.22.35.23.35.23.35.24.36.25.36.27.36.28.37.29.38.3.38.31.39.33.4.34.4.36.41.37.42.39.43.41.44.42.45.44.46.46.47.48.48.27.27.27.27.27.26.28.26.28.26.28.25.28.25.28.25.28.24.28.24.28.24.28.23.28.23.28.23.28.22.28.22.28.22.28.21.28.21.28.2.28.2.28.2.28.19.28.19.28.19.28.18.28.18.28.18.27.17.27.17.27.17.27.16.27.16.27.16.27.15.27.15.27.15.27.14.27.14.27.13.27.13.27.13.27.12.26.12.26.12.26.11.26.11.26.11.26.1.26.1.26.1.26.09.26.09.25.09.25.08.25.08.25.08.25.07.25.07.25.07.24.06.24.06.24.06.24.05.24.05.24.05.23.04.23.04.23.04.23.04.23.03.23.03.22.03.22.02.22.02.22.02h.22s.21.03.21.03h.21s.21.01.21.01h.21s.2,0,.2,0h.2s.2,0,.2,0h.2s.2-.02.2-.02h.19s.19-.03.19-.03l.19-.02.19-.02.18-.02.18-.03.18-.03.18-.03.18-.03.17-.04.17-.04.17-.04.17-.04.16-.05.16-.05.16-.05.16-.05.16-.06.15-.06.15-.06.15-.06.15-.06.14-.07.14-.07.14-.07.14-.07.14-.07.14-.08.13-.08.13-.08.13-.08.13-.09.13-.09.12-.09.12-.09.12-.09.12-.1.12-.1.12-.1.11-.1.11-.11.11-.11.11-.11.11-.11.1-.11.1-.12.1-.12.1-.12.09-.12.09-.12.09-.12.09-.13.09-.13.08-.13.08-.13.08-.13.08-.14.07-.14.07-.14.07-.14.07-.14.07-.14.06-.15.06-.15.06-.15.06-.15.06-.16.05-.16.05-.16.05-.16.05-.16.04-.17.04-.17.04-.17.04-.17.03-.18.03-.18.03-.18.03-.18.02-.18.02-.19.02-.19.02-.19v-.19s.03-.2.03-.2v-.2s.01-.2.01-.2v-.2s0-.2,0-.2v-.21s0-.21,0-.21v-.21s-.02-.21-.02-.21v-.22s-.03-.22-.03-.22l-.02-.22-.02-.22-.03-.22-.03-.23-.03-.23-.04-.23-.04-.23-.04-.23-.04-.23-.05-.24-.05-.24-.05-.24-.06-.24-.06-.24-.06-.24-.07-.25-.07-.25-.07-.25-.08-.25-.08-.25-.08-.25-.09-.25-.09-.26-.09-.26-.1-.26-.1-.26-.1-.26-.11-.26-.11-.26-.11-.26-.12-.26-.12-.26-.12-.27-.13-.27-.13-.27-.13-.27-.14-.27-.14-.27-.15-.27-.15-.27-.15-.27-.16-.27-.16-.27-.16-.27-.17-.27-.17-.27-.17-.27-.18-.28-.18-.28-.18-.28-.19-.28-.19-.28-.19-.28-.2-.28-.2-.28-.2-.28-.21-.28-.21-.28-.22-.28-.22-.28-.22-.28-.23-.28-.23-.28-.23-.28-.24-.28-.24-.28-.24-.28-.25-.28-.25-.28-.25-.28-.26-.28-.26-.28-.26-.27-.27-.27-.27-.27-.48-.48-.47-.46-.46-.44-.45-.42-.44-.41-.43-.39-.42-.37-.41-.36-.4-.34-.4-.33-.39-.31-.38-.3-.38-.29-.37-.28-.36-.27-.36-.25-.36-.24-.35-.23-.35-.23-.35-.22-.35-.21-.35-.2-.35-.2-.35-.19-.35-.18-.35-.18-.36-.18-.36-.17-.37-.17-.37-.17-.38-.16-.4-.17-8.63-3.58-.2.33-.2.32-.2.31-.2.31-.21.31-.21.31-.21.3-.22.3-.22.3-.22.3-.23.29-.23.29-.23.29-.24.29-.24.28-.24.28-.25.28-.25.28-.04.04"/>
    <path class="cls-2" d="M541.8,817.37l-.05.27-.15.77-.29,1.46-.27,1.39-.13.67-.12.65-.11.64-.1.63-.09.62-.04.3-.04.31-.03.3-.03.3-.03.3-.02.3-.02.3-.02.3v.3s-.02.3-.02.3v.3s0,.3,0,.3v.3s.01.31.01.31v.31s.03.31.03.31l.02.31.03.31.03.32.04.32.04.32.05.33.05.33.06.34.07.34.07.34.08.35.08.36.09.36.1.37.1.37.11.38.12.39.13.39.13.4.14.41.15.41.16.43c.99,2.63-1.65,3.63-2.64.99l-.17-.44-.16-.44-.15-.44-.15-.43-.14-.43-.13-.42-.12-.41-.11-.41-.11-.4-.1-.4-.09-.39-.09-.39-.08-.39-.07-.38-.07-.38-.06-.37-.05-.37-.05-.37-.04-.36-.04-.36-.03-.36-.02-.35-.02-.35v-.35s-.02-.35-.02-.35v-.34s0-.34,0-.34v-.34s.02-.34.02-.34l.02-.34.02-.34.02-.33.03-.33.03-.33.03-.33.04-.33.04-.33.04-.33.1-.66.11-.67.12-.67.12-.68.13-.69.27-1.4.29-1.46.1-.5h-.06s-.37-.02-.37-.02l-.37-.02-.37-.03-.37-.03-.37-.04-.37-.04-.37-.04-.37-.05-.37-.05-.37-.06-.37-.06-.37-.06-.37-.07-.36-.07-.36-.08-.36-.08-.36-.09-.37-.09-3.58,8.63-.17.4-.15.38-.15.38-.14.38-.13.38-.13.38-.12.38-.12.38-.11.38-.11.38-.1.39-.1.39-.09.4-.09.41-.08.41-.08.42-.07.43-.07.45-.07.46-.06.47-.06.48-.05.5-.05.51-.04.53-.04.54-.03.56-.03.58-.02.6-.02.62v.64s-.02.66-.02.66v.68s0,.39,0,.39v.38s.01.38.01.38v.38s.02.38.02.38l.02.37.02.37.02.37.02.37.03.37.03.36.03.36.03.36.04.36.04.35.04.35.04.35.05.35.05.34.05.34.05.34.06.34.06.33.06.33.06.33.07.32.07.32.07.32.07.32.07.31.08.31.08.31.08.31.08.3.08.3.09.3.09.29.09.29.09.29.09.28.1.28.1.28.1.28.1.27.1.27.11.27.11.26.11.26.11.26.11.25.11.25.11.25.12.24.12.24.12.24.12.23.12.23.12.23.12.22.13.22.13.22.13.21.13.21.13.21.13.2.13.2.13.2.14.19.14.19.14.19.14.18.14.18.14.18.14.17.14.17.14.17.14.16.14.16.14.16.14.15.14.15.15.14.15.14.15.14.15.13.15.13.15.13.15.12.15.12.15.12.15.11.15.11.15.11.15.1.15.1.15.1.15.09.15.09.15.09.15.08.15.08.15.08.15.07.15.07.15.07.15.06.15.06.15.06.15.06.15.05.15.05.15.05.15.04.15.04.15.04.15.04.15.03.15.03.15.03.15.02.15.02.15.02.15.02h.15s.15.02.15.02h.16s.16.01.16.01h.16s.16,0,.16,0h.16s.16-.01.16-.01h.15s.15-.02.15-.02l.15-.02.15-.02.15-.02.15-.02.15-.03.15-.03.15-.03.15-.04.15-.04.15-.04.15-.04.15-.05.15-.05.15-.05.15-.06.15-.06.15-.06.15-.06.15-.07.15-.07.15-.07.15-.08.15-.08.15-.08.15-.09.15-.09.15-.09.15-.1.15-.1.15-.1.15-.11.15-.11.15-.11.15-.12.15-.12.15-.12.15-.13.15-.13.15-.13.15-.14.15-.14.15-.14.14-.15.14-.15.14-.16.14-.16.14-.16.14-.17.14-.17.14-.17.14-.18.14-.18.14-.18.14-.19.14-.19.14-.19.13-.2.13-.2.13-.2.13-.21.13-.21.13-.21.13-.22.13-.22.12-.22.12-.23.12-.23.12-.23.12-.24.12-.24.12-.24.11-.25.11-.25.11-.25.11-.26.11-.26.11-.26.11-.27.1-.27.1-.27.1-.28.1-.28.1-.28.09-.28.09-.29.09-.29.09-.29.09-.3.08-.3.08-.3.08-.31.08-.31.08-.31.07-.31.07-.32.07-.32.07-.32.07-.32.06-.33.06-.33.06-.33.06-.34.05-.34.05-.34.05-.34.05-.35.04-.35.04-.35.04-.35.04-.36.03-.36.03-.36.03-.36.03-.37.02-.37.02-.37.02-.37.02-.37v-.38s.02-.38.02-.38v-.38s.01-.38.01-.38v-.39s0-.68,0-.68v-.66s-.02-.64-.02-.64l-.02-.62-.02-.6-.03-.58-.03-.56-.04-.54-.04-.53-.05-.51-.05-.5-.06-.48-.06-.47-.07-.46-.07-.45-.07-.43-.08-.42-.08-.41-.09-.41-.09-.4-.1-.39-.1-.39-.11-.38-.11-.38-.12-.38-.12-.38-.13-.38-.13-.38-.14-.38-.15-.38-.15-.38-.17-.4-3.58-8.63-.37.09-.36.09-.36.08-.36.08-.36.07-.37.07-.37.06-.37.06-.37.06-.37.05-.37.05-.37.04-.37.04-.37.04-.37.03-.37.03-.37.02-.37.02h-.05"/>
    <path class="cls-2" d="M518.16,808.77l-.23.16-.65.44-1.24.83-1.18.79-.56.38-.55.38-.53.38-.52.37-.51.38-.24.19-.24.19-.24.19-.24.19-.23.19-.23.2-.23.2-.23.2-.22.2-.22.21-.22.21-.22.21-.21.22-.21.22-.21.23-.21.23-.21.24-.2.24-.2.25-.2.25-.2.26-.2.27-.2.27-.2.28-.19.29-.19.29-.19.3-.19.31-.19.32-.19.33-.19.34-.19.35-.19.36-.19.37-.19.38-.19.39-.19.4-.19.42c-1.16,2.56-3.73,1.4-2.57-1.16l.2-.43.2-.43.2-.42.2-.41.2-.4.2-.39.21-.38.21-.37.21-.36.21-.35.21-.34.21-.34.22-.33.22-.32.22-.31.22-.31.22-.3.23-.29.23-.29.23-.28.23-.27.23-.27.24-.26.24-.26.24-.25.24-.25.24-.24.25-.24.25-.23.25-.23.25-.22.25-.22.26-.22.26-.21.26-.21.26-.21.26-.21.27-.21.54-.4.55-.4.56-.39.57-.39.58-.39,1.18-.8,1.24-.83.42-.29-.04-.04-.25-.28-.25-.28-.24-.28-.24-.28-.24-.29-.23-.29-.23-.29-.23-.29-.22-.3-.22-.3-.22-.3-.21-.3-.21-.31-.21-.31-.2-.31-.2-.31-.2-.32-.2-.33-8.63,3.58-.4.17-.38.16-.37.17-.37.17-.36.17-.36.18-.35.18-.35.18-.35.19-.35.2-.35.2-.35.21-.35.22-.35.23-.35.23-.36.24-.36.25-.36.27-.37.28-.38.29-.38.3-.39.31-.4.33-.4.34-.41.36-.42.37-.43.39-.44.41-.45.42-.46.44-.47.46-.48.48-.27.27-.27.27-.26.27-.26.28-.26.28-.25.28-.25.28-.25.28-.24.28-.24.28-.24.28-.23.28-.23.28-.23.28-.22.28-.22.28-.22.28-.21.28-.21.28-.2.28-.2.28-.2.28-.19.28-.19.28-.19.28-.18.28-.18.28-.18.28-.17.27-.17.27-.17.27-.16.27-.16.27-.16.27-.15.27-.15.27-.15.27-.14.27-.14.27-.13.27-.13.27-.13.27-.12.27-.12.26-.12.26-.11.26-.11.26-.11.26-.1.26-.1.26-.1.26-.09.26-.09.26-.09.25-.08.25-.08.25-.08.25-.07.25-.07.25-.07.25-.06.24-.06.24-.06.24-.05.24-.05.24-.05.24-.04.23-.04.23-.04.23-.04.23-.03.23-.03.23-.03.22-.02.22-.02.22-.02.22v.22s-.03.21-.03.21v.21s-.01.21-.01.21v.21s0,.2,0,.2v.2s0,.2,0,.2v.2s.02.2.02.2v.19s.03.19.03.19l.02.19.02.19.02.18.03.18.03.18.03.18.03.18.04.17.04.17.04.17.04.17.05.16.05.16.05.16.05.16.06.16.06.15.06.15.06.15.06.15.07.14.07.14.07.14.07.14.07.14.08.14.08.13.08.13.08.13.09.13.09.13.09.12.09.12.09.12.1.12.1.12.1.12.1.11.11.11.11.11.11.11.11.11.11.1.12.1.12.1.12.1.12.09.12.09.12.09.13.09.13.09.13.08.13.08.13.08.14.08.14.07.14.07.14.07.14.07.14.07.15.06.15.06.15.06.15.06.16.06.16.05.16.05.16.05.16.05.17.04.17.04.17.04.17.04.18.03.18.03.18.03.18.03.18.02.19.02.19.02.19.02h.19s.2.03.2.03h.2s.2.01.2.01h.2s.2,0,.2,0h.21s.21,0,.21,0h.21s.21-.02.21-.02h.22s.22-.03.22-.03l.22-.02.22-.02.22-.03.23-.03.23-.03.23-.04.23-.04.23-.04.23-.04.24-.05.24-.05.24-.05.24-.06.24-.06.24-.06.25-.07.25-.07.25-.07.25-.08.25-.08.25-.08.25-.09.26-.09.26-.09.26-.1.26-.1.26-.1.26-.11.26-.11.26-.11.26-.12.26-.12.27-.12.27-.13.27-.13.27-.13.27-.14.27-.14.27-.15.27-.15.27-.15.27-.16.27-.16.27-.16.27-.17.27-.17.27-.17.28-.18.28-.18.28-.18.28-.19.28-.19.28-.19.28-.2.28-.2.28-.2.28-.21.28-.21.28-.22.28-.22.28-.22.28-.23.28-.23.28-.23.28-.24.28-.24.28-.24.28-.25.28-.25.28-.25.28-.26.28-.26.27-.26.27-.27.27-.27.48-.48.46-.47.44-.46.42-.45.41-.44.39-.43.37-.42.36-.41.34-.4.33-.4.31-.39.3-.38.29-.38.28-.37.27-.36.25-.36.24-.36.23-.35.23-.35.22-.35.21-.35.2-.35.2-.35.19-.35.18-.35.18-.35.18-.36.17-.36.17-.37.17-.37.16-.38.17-.4,3.58-8.63-.33-.2-.32-.2-.31-.2-.31-.2-.31-.21-.31-.21-.3-.21-.3-.22-.3-.22-.3-.22-.29-.23-.29-.23-.29-.23-.29-.24-.28-.24-.28-.24-.28-.25-.28-.25-.04-.04"/>
  </g>
</svg>